<?xml version="1.0" encoding="UTF-8" ?>
<svg version="1.1" width="580" height="140" xmlns="http://www.w3.org/2000/svg" shape-rendering="crispEdges">
<rect x="0" y="0" width="580" height="1" fill="#5A332D" />
<rect x="0" y="1" width="580" height="10" fill="#1E1C31" />
<rect x="0" y="11" width="10" height="129" fill="#1E1C31" />
<rect x="10" y="11" width="560" height="20" fill="#FAF1DF" />
<rect x="570" y="11" width="10" height="129" fill="#1E1C31" />
<rect x="10" y="31" width="170" height="80" fill="#FAF1DF" />
<rect x="180" y="31" width="10" height="60" fill="#1E1C31" />
<rect x="190" y="31" width="20" height="20" fill="#FAF1DF" />
<rect x="210" y="31" width="10" height="60" fill="#1E1C31" />
<rect x="220" y="31" width="350" height="10" fill="#FAF1DF" />
<rect x="220" y="41" width="20" height="10" fill="#FAF1DF" />
<rect x="240" y="41" width="20" height="10" fill="#1E1C31" />
<rect x="260" y="41" width="20" height="10" fill="#FAF1DF" />
<rect x="280" y="41" width="60" height="10" fill="#1E1C31" />
<rect x="340" y="41" width="30" height="10" fill="#FAF1DF" />
<rect x="370" y="41" width="20" height="10" fill="#1E1C31" />
<rect x="390" y="41" width="180" height="10" fill="#FAF1DF" />
<rect x="190" y="51" width="20" height="10" fill="#1E1C31" />
<rect x="220" y="51" width="10" height="60" fill="#FAF1DF" />
<rect x="230" y="51" width="10" height="30" fill="#1E1C31" />
<rect x="240" y="51" width="20" height="30" fill="#FAF1DF" />
<rect x="260" y="51" width="10" height="30" fill="#1E1C31" />
<rect x="270" y="51" width="10" height="60" fill="#FAF1DF" />
<rect x="280" y="51" width="10" height="40" fill="#1E1C31" />
<rect x="290" y="51" width="20" height="60" fill="#FAF1DF" />
<rect x="310" y="51" width="10" height="40" fill="#1E1C31" />
<rect x="320" y="51" width="20" height="60" fill="#FAF1DF" />
<rect x="340" y="51" width="10" height="40" fill="#1E1C31" />
<rect x="350" y="51" width="10" height="60" fill="#FAF1DF" />
<rect x="360" y="51" width="10" height="30" fill="#1E1C31" />
<rect x="370" y="51" width="20" height="10" fill="#FAF1DF" />
<rect x="390" y="51" width="10" height="20" fill="#1E1C31" />
<rect x="400" y="51" width="170" height="60" fill="#FAF1DF" />
<rect x="190" y="61" width="20" height="50" fill="#FAF1DF" />
<rect x="370" y="61" width="20" height="10" fill="#1E1C31" />
<rect x="370" y="71" width="30" height="10" fill="#FAF1DF" />
<rect x="230" y="81" width="10" height="30" fill="#FAF1DF" />
<rect x="240" y="81" width="20" height="10" fill="#1E1C31" />
<rect x="260" y="81" width="10" height="30" fill="#FAF1DF" />
<rect x="360" y="81" width="10" height="30" fill="#FAF1DF" />
<rect x="370" y="81" width="20" height="10" fill="#1E1C31" />
<rect x="390" y="81" width="10" height="30" fill="#FAF1DF" />
<rect x="180" y="91" width="10" height="20" fill="#FAF1DF" />
<rect x="210" y="91" width="10" height="20" fill="#FAF1DF" />
<rect x="240" y="91" width="20" height="20" fill="#FAF1DF" />
<rect x="280" y="91" width="10" height="20" fill="#FAF1DF" />
<rect x="310" y="91" width="10" height="20" fill="#FAF1DF" />
<rect x="340" y="91" width="10" height="20" fill="#FAF1DF" />
<rect x="370" y="91" width="20" height="20" fill="#FAF1DF" />
<rect x="10" y="111" width="560" height="10" fill="#DDDAD3" />
<rect x="10" y="121" width="560" height="10" fill="#EBDDC0" />
<rect x="10" y="131" width="560" height="9" fill="#1E1C31" />
</svg>