<?xml version="1.0" encoding="UTF-8" ?>
<svg version="1.1" width="580" height="140" xmlns="http://www.w3.org/2000/svg" shape-rendering="crispEdges">
<rect x="0" y="0" width="580" height="10" fill="#1E1C31" />
<rect x="0" y="10" width="10" height="130" fill="#1E1C31" />
<rect x="10" y="10" width="560" height="20" fill="#FAF1DF" />
<rect x="570" y="10" width="10" height="130" fill="#1E1C31" />
<rect x="10" y="30" width="100" height="10" fill="#FAF1DF" />
<rect x="110" y="30" width="20" height="10" fill="#1E1C31" />
<rect x="130" y="30" width="20" height="10" fill="#FAF1DF" />
<rect x="150" y="30" width="10" height="60" fill="#1E1C31" />
<rect x="160" y="30" width="140" height="10" fill="#FAF1DF" />
<rect x="300" y="30" width="10" height="50" fill="#1E1C31" />
<rect x="310" y="30" width="260" height="10" fill="#FAF1DF" />
<rect x="10" y="40" width="90" height="70" fill="#FAF1DF" />
<rect x="100" y="40" width="10" height="50" fill="#1E1C31" />
<rect x="110" y="40" width="20" height="20" fill="#FAF1DF" />
<rect x="130" y="40" width="10" height="50" fill="#1E1C31" />
<rect x="140" y="40" width="10" height="70" fill="#FAF1DF" />
<rect x="160" y="40" width="50" height="10" fill="#FAF1DF" />
<rect x="210" y="40" width="20" height="10" fill="#1E1C31" />
<rect x="230" y="40" width="20" height="10" fill="#FAF1DF" />
<rect x="250" y="40" width="10" height="40" fill="#1E1C31" />
<rect x="260" y="40" width="20" height="40" fill="#FAF1DF" />
<rect x="280" y="40" width="10" height="50" fill="#1E1C31" />
<rect x="290" y="40" width="10" height="70" fill="#FAF1DF" />
<rect x="310" y="40" width="10" height="10" fill="#1E1C31" />
<rect x="320" y="40" width="50" height="70" fill="#FAF1DF" />
<rect x="370" y="40" width="60" height="10" fill="#1E1C31" />
<rect x="430" y="40" width="30" height="10" fill="#FAF1DF" />
<rect x="460" y="40" width="20" height="10" fill="#1E1C31" />
<rect x="480" y="40" width="90" height="10" fill="#FAF1DF" />
<rect x="160" y="50" width="20" height="10" fill="#1E1C31" />
<rect x="180" y="50" width="20" height="10" fill="#FAF1DF" />
<rect x="200" y="50" width="10" height="30" fill="#1E1C31" />
<rect x="210" y="50" width="20" height="30" fill="#FAF1DF" />
<rect x="230" y="50" width="10" height="30" fill="#1E1C31" />
<rect x="240" y="50" width="10" height="60" fill="#FAF1DF" />
<rect x="310" y="50" width="10" height="30" fill="#FAF1DF" />
<rect x="370" y="50" width="10" height="40" fill="#1E1C31" />
<rect x="380" y="50" width="20" height="60" fill="#FAF1DF" />
<rect x="400" y="50" width="10" height="40" fill="#1E1C31" />
<rect x="410" y="50" width="20" height="60" fill="#FAF1DF" />
<rect x="430" y="50" width="10" height="40" fill="#1E1C31" />
<rect x="440" y="50" width="10" height="60" fill="#FAF1DF" />
<rect x="450" y="50" width="10" height="30" fill="#1E1C31" />
<rect x="460" y="50" width="20" height="10" fill="#FAF1DF" />
<rect x="480" y="50" width="10" height="20" fill="#1E1C31" />
<rect x="490" y="50" width="80" height="60" fill="#FAF1DF" />
<rect x="110" y="60" width="20" height="10" fill="#1E1C31" />
<rect x="160" y="60" width="20" height="20" fill="#FAF1DF" />
<rect x="180" y="60" width="10" height="20" fill="#1E1C31" />
<rect x="190" y="60" width="10" height="50" fill="#FAF1DF" />
<rect x="460" y="60" width="20" height="10" fill="#1E1C31" />
<rect x="110" y="70" width="20" height="40" fill="#FAF1DF" />
<rect x="460" y="70" width="30" height="10" fill="#FAF1DF" />
<rect x="160" y="80" width="20" height="10" fill="#1E1C31" />
<rect x="180" y="80" width="10" height="30" fill="#FAF1DF" />
<rect x="200" y="80" width="10" height="30" fill="#FAF1DF" />
<rect x="210" y="80" width="20" height="10" fill="#1E1C31" />
<rect x="230" y="80" width="10" height="30" fill="#FAF1DF" />
<rect x="250" y="80" width="10" height="30" fill="#FAF1DF" />
<rect x="260" y="80" width="20" height="10" fill="#1E1C31" />
<rect x="300" y="80" width="10" height="30" fill="#FAF1DF" />
<rect x="310" y="80" width="10" height="10" fill="#1E1C31" />
<rect x="450" y="80" width="10" height="30" fill="#FAF1DF" />
<rect x="460" y="80" width="20" height="10" fill="#1E1C31" />
<rect x="480" y="80" width="10" height="30" fill="#FAF1DF" />
<rect x="100" y="90" width="10" height="20" fill="#FAF1DF" />
<rect x="130" y="90" width="10" height="20" fill="#FAF1DF" />
<rect x="150" y="90" width="30" height="20" fill="#FAF1DF" />
<rect x="210" y="90" width="20" height="20" fill="#FAF1DF" />
<rect x="260" y="90" width="30" height="20" fill="#FAF1DF" />
<rect x="310" y="90" width="10" height="20" fill="#FAF1DF" />
<rect x="370" y="90" width="10" height="20" fill="#FAF1DF" />
<rect x="400" y="90" width="10" height="20" fill="#FAF1DF" />
<rect x="430" y="90" width="10" height="20" fill="#FAF1DF" />
<rect x="460" y="90" width="20" height="20" fill="#FAF1DF" />
<rect x="10" y="110" width="560" height="10" fill="#DDDAD3" />
<rect x="10" y="120" width="560" height="10" fill="#EBDDC0" />
<rect x="10" y="130" width="560" height="10" fill="#1E1C31" />
</svg>