<?xml version="1.0" encoding="UTF-8" ?>
<svg version="1.1" width="320" height="320" xmlns="http://www.w3.org/2000/svg" shape-rendering="crispEdges">
<rect x="110" y="0" width="80" height="10" fill="#291714" />
<rect x="80" y="10" width="40" height="10" fill="#291714" />
<rect x="120" y="10" width="70" height="10" fill="#563029" />
<rect x="190" y="10" width="40" height="10" fill="#291714" />
<rect x="70" y="20" width="10" height="10" fill="#291714" />
<rect x="80" y="20" width="30" height="10" fill="#563029" />
<rect x="110" y="20" width="110" height="10" fill="#6D3F37" />
<rect x="220" y="20" width="10" height="10" fill="#563029" />
<rect x="230" y="20" width="10" height="10" fill="#291714" />
<rect x="50" y="30" width="20" height="10" fill="#291714" />
<rect x="70" y="30" width="20" height="10" fill="#563029" />
<rect x="90" y="30" width="20" height="10" fill="#6D3F37" />
<rect x="110" y="30" width="70" height="10" fill="#663931" />
<rect x="180" y="30" width="20" height="10" fill="#8F563B" />
<rect x="200" y="30" width="30" height="20" fill="#663931" />
<rect x="230" y="30" width="10" height="10" fill="#563029" />
<rect x="240" y="30" width="10" height="10" fill="#291714" />
<rect x="40" y="40" width="20" height="10" fill="#291714" />
<rect x="60" y="40" width="10" height="10" fill="#563029" />
<rect x="70" y="40" width="10" height="10" fill="#6D3F37" />
<rect x="80" y="40" width="30" height="10" fill="#663931" />
<rect x="110" y="40" width="20" height="10" fill="#8F563B" />
<rect x="130" y="40" width="10" height="10" fill="#9E6246" />
<rect x="140" y="40" width="10" height="10" fill="#8F563B" />
<rect x="150" y="40" width="20" height="10" fill="#663931" />
<rect x="170" y="40" width="20" height="10" fill="#8F563B" />
<rect x="190" y="40" width="10" height="10" fill="#9E6246" />
<rect x="230" y="40" width="10" height="20" fill="#663931" />
<rect x="240" y="40" width="10" height="20" fill="#563029" />
<rect x="250" y="40" width="10" height="20" fill="#291714" />
<rect x="30" y="50" width="20" height="20" fill="#291714" />
<rect x="50" y="50" width="10" height="10" fill="#563029" />
<rect x="60" y="50" width="30" height="10" fill="#663931" />
<rect x="90" y="50" width="20" height="10" fill="#8F563B" />
<rect x="110" y="50" width="20" height="10" fill="#9E6246" />
<rect x="130" y="50" width="20" height="10" fill="#663931" />
<rect x="150" y="50" width="10" height="10" fill="#40241F" />
<rect x="160" y="50" width="10" height="10" fill="#663931" />
<rect x="170" y="50" width="10" height="10" fill="#8F563B" />
<rect x="180" y="50" width="10" height="10" fill="#9E6246" />
<rect x="190" y="50" width="30" height="10" fill="#663931" />
<rect x="220" y="50" width="10" height="10" fill="#8F563B" />
<rect x="50" y="60" width="10" height="10" fill="#6D3F37" />
<rect x="60" y="60" width="10" height="10" fill="#663931" />
<rect x="70" y="60" width="10" height="20" fill="#8F563B" />
<rect x="80" y="60" width="20" height="20" fill="#663931" />
<rect x="100" y="60" width="10" height="10" fill="#8F563B" />
<rect x="110" y="60" width="30" height="10" fill="#663931" />
<rect x="140" y="60" width="10" height="10" fill="#40241F" />
<rect x="150" y="60" width="10" height="10" fill="#663931" />
<rect x="160" y="60" width="10" height="10" fill="#8F563B" />
<rect x="170" y="60" width="20" height="10" fill="#663931" />
<rect x="190" y="60" width="10" height="10" fill="#40241F" />
<rect x="200" y="60" width="20" height="10" fill="#8F563B" />
<rect x="220" y="60" width="10" height="10" fill="#9E6246" />
<rect x="230" y="60" width="10" height="10" fill="#40241F" />
<rect x="240" y="60" width="20" height="10" fill="#663931" />
<rect x="260" y="60" width="10" height="30" fill="#291714" />
<rect x="30" y="70" width="10" height="110" fill="#291714" />
<rect x="40" y="70" width="20" height="10" fill="#663931" />
<rect x="60" y="70" width="10" height="30" fill="#8F563B" />
<rect x="100" y="70" width="20" height="10" fill="#9E6246" />
<rect x="120" y="70" width="10" height="20" fill="#291714" />
<rect x="130" y="70" width="10" height="10" fill="#40241F" />
<rect x="140" y="70" width="10" height="10" fill="#663931" />
<rect x="150" y="70" width="10" height="10" fill="#8F563B" />
<rect x="160" y="70" width="20" height="10" fill="#663931" />
<rect x="180" y="70" width="10" height="10" fill="#40241F" />
<rect x="190" y="70" width="10" height="20" fill="#8F563B" />
<rect x="200" y="70" width="10" height="10" fill="#9E6246" />
<rect x="210" y="70" width="10" height="10" fill="#663931" />
<rect x="220" y="70" width="10" height="30" fill="#40241F" />
<rect x="230" y="70" width="10" height="10" fill="#663931" />
<rect x="240" y="70" width="10" height="10" fill="#9E6246" />
<rect x="250" y="70" width="10" height="30" fill="#563029" />
<rect x="40" y="80" width="10" height="50" fill="#663931" />
<rect x="50" y="80" width="10" height="10" fill="#8F563B" />
<rect x="70" y="80" width="10" height="50" fill="#663931" />
<rect x="80" y="80" width="10" height="10" fill="#8F563B" />
<rect x="90" y="80" width="10" height="10" fill="#9E6246" />
<rect x="100" y="80" width="20" height="10" fill="#663931" />
<rect x="130" y="80" width="10" height="10" fill="#663931" />
<rect x="140" y="80" width="10" height="10" fill="#563029" />
<rect x="150" y="80" width="30" height="10" fill="#40241F" />
<rect x="180" y="80" width="10" height="20" fill="#663931" />
<rect x="200" y="80" width="10" height="10" fill="#663931" />
<rect x="210" y="80" width="10" height="10" fill="#40241F" />
<rect x="230" y="80" width="10" height="10" fill="#9E6246" />
<rect x="240" y="80" width="10" height="20" fill="#663931" />
<rect x="50" y="90" width="10" height="10" fill="#663931" />
<rect x="80" y="90" width="20" height="10" fill="#663931" />
<rect x="100" y="90" width="10" height="10" fill="#563029" />
<rect x="110" y="90" width="10" height="10" fill="#291714" />
<rect x="120" y="90" width="10" height="10" fill="#663931" />
<rect x="130" y="90" width="10" height="10" fill="#563029" />
<rect x="140" y="90" width="10" height="10" fill="#40241F" />
<rect x="150" y="90" width="20" height="10" fill="#DAAC81" />
<rect x="170" y="90" width="10" height="20" fill="#40241F" />
<rect x="190" y="90" width="10" height="10" fill="#563029" />
<rect x="200" y="90" width="10" height="10" fill="#40241F" />
<rect x="210" y="90" width="10" height="10" fill="#DAAC81" />
<rect x="230" y="90" width="10" height="20" fill="#663931" />
<rect x="260" y="90" width="10" height="10" fill="#563029" />
<rect x="270" y="90" width="10" height="40" fill="#291714" />
<rect x="50" y="100" width="10" height="10" fill="#8F563B" />
<rect x="60" y="100" width="10" height="10" fill="#663931" />
<rect x="80" y="100" width="10" height="20" fill="#663931" />
<rect x="90" y="100" width="10" height="10" fill="#563029" />
<rect x="100" y="100" width="10" height="20" fill="#291714" />
<rect x="110" y="100" width="30" height="10" fill="#40241F" />
<rect x="140" y="100" width="10" height="10" fill="#DAAC81" />
<rect x="150" y="100" width="20" height="10" fill="#40241F" />
<rect x="180" y="100" width="10" height="10" fill="#563029" />
<rect x="190" y="100" width="10" height="10" fill="#40241F" />
<rect x="200" y="100" width="10" height="10" fill="#DAAC81" />
<rect x="210" y="100" width="10" height="20" fill="#40241F" />
<rect x="220" y="100" width="10" height="10" fill="#563029" />
<rect x="240" y="100" width="20" height="20" fill="#40241F" />
<rect x="260" y="100" width="10" height="10" fill="#663931" />
<rect x="50" y="110" width="10" height="60" fill="#663931" />
<rect x="60" y="110" width="10" height="80" fill="#40241F" />
<rect x="90" y="110" width="10" height="10" fill="#291714" />
<rect x="110" y="110" width="20" height="10" fill="#DAAC81" />
<rect x="130" y="110" width="10" height="10" fill="#EEC39A" />
<rect x="140" y="110" width="20" height="10" fill="#40241F" />
<rect x="160" y="110" width="20" height="20" fill="#EEC39A" />
<rect x="180" y="110" width="10" height="10" fill="#40241F" />
<rect x="190" y="110" width="10" height="10" fill="#DAAC81" />
<rect x="200" y="110" width="10" height="10" fill="#40241F" />
<rect x="220" y="110" width="20" height="10" fill="#40241F" />
<rect x="260" y="110" width="10" height="10" fill="#563029" />
<rect x="80" y="120" width="10" height="10" fill="#563029" />
<rect x="90" y="120" width="10" height="20" fill="#40241F" />
<rect x="100" y="120" width="20" height="10" fill="#ECB987" />
<rect x="120" y="120" width="20" height="10" fill="#40241F" />
<rect x="140" y="120" width="20" height="10" fill="#EEC39A" />
<rect x="180" y="120" width="20" height="50" fill="#EEC39A" />
<rect x="200" y="120" width="50" height="10" fill="#DAAC81" />
<rect x="250" y="120" width="10" height="50" fill="#40241F" />
<rect x="260" y="120" width="10" height="20" fill="#291714" />
<rect x="40" y="130" width="10" height="40" fill="#40241F" />
<rect x="70" y="130" width="20" height="10" fill="#EEC39A" />
<rect x="100" y="130" width="10" height="50" fill="#40241F" />
<rect x="110" y="130" width="10" height="70" fill="#ECB987" />
<rect x="120" y="130" width="20" height="10" fill="#EEC39A" />
<rect x="140" y="130" width="20" height="10" fill="#663931" />
<rect x="160" y="130" width="20" height="10" fill="#6D3F37" />
<rect x="200" y="130" width="10" height="50" fill="#EEC39A" />
<rect x="210" y="130" width="10" height="10" fill="#6D3F37" />
<rect x="220" y="130" width="10" height="10" fill="#663931" />
<rect x="230" y="130" width="20" height="10" fill="#6D3F37" />
<rect x="70" y="140" width="10" height="20" fill="#EEC39A" />
<rect x="80" y="140" width="10" height="20" fill="#D9A066" />
<rect x="90" y="140" width="10" height="10" fill="#EEC39A" />
<rect x="120" y="140" width="10" height="10" fill="#ECB987" />
<rect x="130" y="140" width="10" height="70" fill="#EEC39A" />
<rect x="140" y="140" width="10" height="10" fill="#663931" />
<rect x="150" y="140" width="10" height="10" fill="#DADADA" />
<rect x="160" y="140" width="10" height="10" fill="#663931" />
<rect x="170" y="140" width="10" height="10" fill="#6D3F37" />
<rect x="210" y="140" width="20" height="10" fill="#DADADA" />
<rect x="230" y="140" width="10" height="10" fill="#663931" />
<rect x="240" y="140" width="10" height="10" fill="#6D3F37" />
<rect x="90" y="150" width="10" height="10" fill="#D9A066" />
<rect x="120" y="150" width="10" height="40" fill="#EEC39A" />
<rect x="140" y="150" width="10" height="10" fill="#DADADA" />
<rect x="150" y="150" width="10" height="20" fill="#FFFFFF" />
<rect x="160" y="150" width="10" height="20" fill="#8F563B" />
<rect x="170" y="150" width="10" height="10" fill="#663931" />
<rect x="210" y="150" width="10" height="10" fill="#DADADA" />
<rect x="220" y="150" width="10" height="20" fill="#FFFFFF" />
<rect x="230" y="150" width="10" height="20" fill="#8F563B" />
<rect x="240" y="150" width="10" height="10" fill="#663931" />
<rect x="70" y="160" width="10" height="40" fill="#40241F" />
<rect x="80" y="160" width="20" height="10" fill="#EEC39A" />
<rect x="140" y="160" width="10" height="10" fill="#FFFFFF" />
<rect x="170" y="160" width="10" height="10" fill="#8F563B" />
<rect x="210" y="160" width="10" height="10" fill="#FFFFFF" />
<rect x="240" y="160" width="10" height="10" fill="#8F563B" />
<rect x="40" y="170" width="10" height="10" fill="#4F2E28" />
<rect x="50" y="170" width="10" height="20" fill="#40241F" />
<rect x="80" y="170" width="10" height="40" fill="#40241F" />
<rect x="90" y="170" width="10" height="20" fill="#EEC39A" />
<rect x="140" y="170" width="30" height="10" fill="#F0C9A3" />
<rect x="170" y="170" width="10" height="10" fill="#EEC39A" />
<rect x="180" y="170" width="10" height="10" fill="#F0C9A3" />
<rect x="190" y="170" width="10" height="10" fill="#D9A066" />
<rect x="210" y="170" width="30" height="10" fill="#F0C9A3" />
<rect x="240" y="170" width="10" height="10" fill="#EEC39A" />
<rect x="250" y="170" width="10" height="60" fill="#F0CDAC" />
<rect x="260" y="170" width="10" height="60" fill="#40241F" />
<rect x="40" y="180" width="10" height="30" fill="#291714" />
<rect x="100" y="180" width="10" height="10" fill="#ECB987" />
<rect x="140" y="180" width="20" height="10" fill="#F0C9A3" />
<rect x="160" y="180" width="10" height="70" fill="#EEC39A" />
<rect x="170" y="180" width="10" height="10" fill="#F0C9A3" />
<rect x="180" y="180" width="10" height="70" fill="#EEC39A" />
<rect x="190" y="180" width="10" height="10" fill="#F0CDAC" />
<rect x="200" y="180" width="10" height="20" fill="#D9A066" />
<rect x="210" y="180" width="10" height="30" fill="#EEC39A" />
<rect x="220" y="180" width="30" height="10" fill="#F0C9A3" />
<rect x="50" y="190" width="20" height="10" fill="#4F2E28" />
<rect x="90" y="190" width="20" height="10" fill="#D9A066" />
<rect x="120" y="190" width="10" height="20" fill="#ECB987" />
<rect x="140" y="190" width="20" height="50" fill="#EEC39A" />
<rect x="170" y="190" width="10" height="60" fill="#EEC39A" />
<rect x="190" y="190" width="10" height="20" fill="#EEC39A" />
<rect x="220" y="190" width="10" height="60" fill="#EEC39A" />
<rect x="230" y="190" width="20" height="10" fill="#F0C9A3" />
<rect x="50" y="200" width="20" height="10" fill="#291714" />
<rect x="70" y="200" width="10" height="10" fill="#4F2E28" />
<rect x="90" y="200" width="20" height="10" fill="#40241F" />
<rect x="110" y="200" width="10" height="10" fill="#D9A066" />
<rect x="200" y="200" width="10" height="10" fill="#EEC39A" />
<rect x="230" y="200" width="20" height="20" fill="#EEC39A" />
<rect x="70" y="210" width="10" height="10" fill="#291714" />
<rect x="80" y="210" width="30" height="10" fill="#4F2E28" />
<rect x="110" y="210" width="10" height="10" fill="#40241F" />
<rect x="120" y="210" width="10" height="10" fill="#D9A066" />
<rect x="130" y="210" width="10" height="10" fill="#ECB987" />
<rect x="190" y="210" width="20" height="10" fill="#DADADA" />
<rect x="210" y="210" width="10" height="10" fill="#350707" />
<rect x="80" y="220" width="30" height="10" fill="#291714" />
<rect x="110" y="220" width="10" height="20" fill="#4F2E28" />
<rect x="120" y="220" width="10" height="10" fill="#40241F" />
<rect x="130" y="220" width="10" height="20" fill="#D9A066" />
<rect x="190" y="220" width="30" height="10" fill="#621B1B" />
<rect x="230" y="220" width="10" height="30" fill="#EEC39A" />
<rect x="240" y="220" width="10" height="10" fill="#F0CDAC" />
<rect x="100" y="230" width="10" height="10" fill="#291714" />
<rect x="120" y="230" width="10" height="20" fill="#4F2E28" />
<rect x="190" y="230" width="30" height="20" fill="#EEC39A" />
<rect x="240" y="230" width="20" height="10" fill="#40241F" />
<rect x="110" y="240" width="10" height="10" fill="#291714" />
<rect x="130" y="240" width="10" height="30" fill="#EEC39A" />
<rect x="140" y="240" width="20" height="10" fill="#D9A066" />
<rect x="120" y="250" width="10" height="20" fill="#323C39" />
<rect x="140" y="250" width="20" height="20" fill="#EEC39A" />
<rect x="160" y="250" width="70" height="10" fill="#D9A066" />
<rect x="230" y="250" width="10" height="10" fill="#40241F" />
<rect x="80" y="260" width="40" height="10" fill="#323C39" />
<rect x="160" y="260" width="40" height="10" fill="#EEC39A" />
<rect x="200" y="260" width="10" height="10" fill="#40241F" />
<rect x="210" y="260" width="50" height="10" fill="#323C39" />
<rect x="70" y="270" width="10" height="10" fill="#323C39" />
<rect x="80" y="270" width="30" height="10" fill="#415A2A" />
<rect x="110" y="270" width="10" height="10" fill="#323C39" />
<rect x="120" y="270" width="10" height="10" fill="#415A2A" />
<rect x="130" y="270" width="80" height="10" fill="#323C39" />
<rect x="210" y="270" width="20" height="10" fill="#415A2A" />
<rect x="230" y="270" width="40" height="10" fill="#323C39" />
<rect x="60" y="280" width="10" height="10" fill="#323C39" />
<rect x="70" y="280" width="10" height="10" fill="#415A2A" />
<rect x="80" y="280" width="40" height="10" fill="#4B692F" />
<rect x="120" y="280" width="10" height="20" fill="#323C39" />
<rect x="130" y="280" width="90" height="10" fill="#415A2A" />
<rect x="220" y="280" width="10" height="20" fill="#323C39" />
<rect x="230" y="280" width="30" height="10" fill="#415A2A" />
<rect x="260" y="280" width="20" height="10" fill="#323C39" />
<rect x="50" y="290" width="10" height="30" fill="#323C39" />
<rect x="60" y="290" width="10" height="10" fill="#415A2A" />
<rect x="70" y="290" width="10" height="10" fill="#4B692F" />
<rect x="80" y="290" width="10" height="30" fill="#62873F" />
<rect x="90" y="290" width="20" height="10" fill="#4B692F" />
<rect x="110" y="290" width="10" height="10" fill="#415A2A" />
<rect x="130" y="290" width="90" height="10" fill="#323C39" />
<rect x="230" y="290" width="10" height="10" fill="#415A2A" />
<rect x="240" y="290" width="20" height="10" fill="#4B692F" />
<rect x="260" y="290" width="10" height="10" fill="#415A2A" />
<rect x="270" y="290" width="10" height="30" fill="#323C39" />
<rect x="60" y="300" width="10" height="10" fill="#4B692F" />
<rect x="70" y="300" width="10" height="20" fill="#62873F" />
<rect x="90" y="300" width="10" height="20" fill="#62873F" />
<rect x="100" y="300" width="10" height="20" fill="#4B692F" />
<rect x="110" y="300" width="10" height="20" fill="#323C39" />
<rect x="120" y="300" width="110" height="10" fill="#415A2A" />
<rect x="230" y="300" width="10" height="20" fill="#323C39" />
<rect x="240" y="300" width="10" height="20" fill="#415A2A" />
<rect x="250" y="300" width="10" height="20" fill="#62873F" />
<rect x="260" y="300" width="10" height="10" fill="#4B692F" />
<rect x="60" y="310" width="10" height="10" fill="#62873F" />
<rect x="120" y="310" width="110" height="10" fill="#62873F" />
<rect x="260" y="310" width="10" height="10" fill="#62873F" />
</svg>