<?xml version="1.0" encoding="UTF-8" ?>
<svg version="1.1" width="580" height="140" xmlns="http://www.w3.org/2000/svg" shape-rendering="crispEdges">
<rect x="0" y="0" width="580" height="10" fill="#1E1C31" />
<rect x="0" y="10" width="10" height="130" fill="#1E1C31" />
<rect x="10" y="10" width="560" height="20" fill="#FAF1DF" />
<rect x="570" y="10" width="10" height="130" fill="#1E1C31" />
<rect x="10" y="30" width="20" height="80" fill="#FAF1DF" />
<rect x="30" y="30" width="10" height="60" fill="#1E1C31" />
<rect x="40" y="30" width="20" height="10" fill="#FAF1DF" />
<rect x="60" y="30" width="10" height="10" fill="#1E1C31" />
<rect x="70" y="30" width="200" height="10" fill="#FAF1DF" />
<rect x="270" y="30" width="30" height="10" fill="#1E1C31" />
<rect x="300" y="30" width="20" height="10" fill="#FAF1DF" />
<rect x="320" y="30" width="10" height="60" fill="#1E1C31" />
<rect x="330" y="30" width="110" height="10" fill="#FAF1DF" />
<rect x="440" y="30" width="10" height="10" fill="#1E1C31" />
<rect x="450" y="30" width="120" height="10" fill="#FAF1DF" />
<rect x="40" y="40" width="10" height="10" fill="#FAF1DF" />
<rect x="50" y="40" width="10" height="10" fill="#1E1C31" />
<rect x="60" y="40" width="30" height="10" fill="#FAF1DF" />
<rect x="90" y="40" width="20" height="10" fill="#1E1C31" />
<rect x="110" y="40" width="30" height="10" fill="#FAF1DF" />
<rect x="140" y="40" width="20" height="10" fill="#1E1C31" />
<rect x="160" y="40" width="20" height="10" fill="#FAF1DF" />
<rect x="180" y="40" width="30" height="10" fill="#1E1C31" />
<rect x="210" y="40" width="60" height="10" fill="#FAF1DF" />
<rect x="270" y="40" width="10" height="50" fill="#1E1C31" />
<rect x="280" y="40" width="20" height="20" fill="#FAF1DF" />
<rect x="300" y="40" width="10" height="20" fill="#1E1C31" />
<rect x="310" y="40" width="10" height="70" fill="#FAF1DF" />
<rect x="330" y="40" width="20" height="30" fill="#FAF1DF" />
<rect x="350" y="40" width="20" height="10" fill="#1E1C31" />
<rect x="370" y="40" width="20" height="10" fill="#FAF1DF" />
<rect x="390" y="40" width="10" height="30" fill="#1E1C31" />
<rect x="400" y="40" width="20" height="30" fill="#FAF1DF" />
<rect x="420" y="40" width="10" height="50" fill="#1E1C31" />
<rect x="430" y="40" width="30" height="10" fill="#FAF1DF" />
<rect x="460" y="40" width="30" height="10" fill="#1E1C31" />
<rect x="490" y="40" width="30" height="10" fill="#FAF1DF" />
<rect x="520" y="40" width="20" height="10" fill="#1E1C31" />
<rect x="540" y="40" width="30" height="10" fill="#FAF1DF" />
<rect x="40" y="50" width="10" height="20" fill="#1E1C31" />
<rect x="50" y="50" width="30" height="20" fill="#FAF1DF" />
<rect x="80" y="50" width="10" height="30" fill="#1E1C31" />
<rect x="90" y="50" width="20" height="10" fill="#FAF1DF" />
<rect x="110" y="50" width="10" height="20" fill="#1E1C31" />
<rect x="120" y="50" width="10" height="60" fill="#FAF1DF" />
<rect x="130" y="50" width="10" height="30" fill="#1E1C31" />
<rect x="140" y="50" width="20" height="10" fill="#FAF1DF" />
<rect x="160" y="50" width="10" height="20" fill="#1E1C31" />
<rect x="170" y="50" width="10" height="60" fill="#FAF1DF" />
<rect x="180" y="50" width="10" height="50" fill="#1E1C31" />
<rect x="190" y="50" width="20" height="20" fill="#FAF1DF" />
<rect x="210" y="50" width="10" height="20" fill="#1E1C31" />
<rect x="220" y="50" width="50" height="60" fill="#FAF1DF" />
<rect x="350" y="50" width="20" height="10" fill="#FAF1DF" />
<rect x="370" y="50" width="10" height="40" fill="#1E1C31" />
<rect x="380" y="50" width="10" height="60" fill="#FAF1DF" />
<rect x="430" y="50" width="10" height="60" fill="#FAF1DF" />
<rect x="440" y="50" width="10" height="40" fill="#1E1C31" />
<rect x="450" y="50" width="10" height="60" fill="#FAF1DF" />
<rect x="460" y="50" width="10" height="40" fill="#1E1C31" />
<rect x="470" y="50" width="20" height="60" fill="#FAF1DF" />
<rect x="490" y="50" width="10" height="40" fill="#1E1C31" />
<rect x="500" y="50" width="10" height="60" fill="#FAF1DF" />
<rect x="510" y="50" width="10" height="20" fill="#1E1C31" />
<rect x="520" y="50" width="20" height="20" fill="#FAF1DF" />
<rect x="540" y="50" width="10" height="40" fill="#1E1C31" />
<rect x="550" y="50" width="20" height="60" fill="#FAF1DF" />
<rect x="90" y="60" width="20" height="10" fill="#1E1C31" />
<rect x="140" y="60" width="20" height="10" fill="#1E1C31" />
<rect x="280" y="60" width="20" height="10" fill="#1E1C31" />
<rect x="300" y="60" width="10" height="50" fill="#FAF1DF" />
<rect x="350" y="60" width="20" height="10" fill="#1E1C31" />
<rect x="40" y="70" width="10" height="40" fill="#FAF1DF" />
<rect x="50" y="70" width="10" height="10" fill="#1E1C31" />
<rect x="60" y="70" width="20" height="10" fill="#FAF1DF" />
<rect x="90" y="70" width="30" height="10" fill="#FAF1DF" />
<rect x="140" y="70" width="30" height="10" fill="#FAF1DF" />
<rect x="190" y="70" width="20" height="10" fill="#1E1C31" />
<rect x="210" y="70" width="10" height="40" fill="#FAF1DF" />
<rect x="280" y="70" width="20" height="40" fill="#FAF1DF" />
<rect x="330" y="70" width="10" height="40" fill="#FAF1DF" />
<rect x="340" y="70" width="10" height="10" fill="#1E1C31" />
<rect x="350" y="70" width="20" height="10" fill="#FAF1DF" />
<rect x="390" y="70" width="10" height="40" fill="#FAF1DF" />
<rect x="400" y="70" width="20" height="10" fill="#1E1C31" />
<rect x="510" y="70" width="10" height="40" fill="#FAF1DF" />
<rect x="520" y="70" width="20" height="10" fill="#1E1C31" />
<rect x="50" y="80" width="10" height="30" fill="#FAF1DF" />
<rect x="60" y="80" width="10" height="10" fill="#1E1C31" />
<rect x="70" y="80" width="20" height="30" fill="#FAF1DF" />
<rect x="90" y="80" width="20" height="10" fill="#1E1C31" />
<rect x="110" y="80" width="10" height="30" fill="#FAF1DF" />
<rect x="130" y="80" width="10" height="30" fill="#FAF1DF" />
<rect x="140" y="80" width="20" height="10" fill="#1E1C31" />
<rect x="160" y="80" width="10" height="30" fill="#FAF1DF" />
<rect x="190" y="80" width="20" height="30" fill="#FAF1DF" />
<rect x="340" y="80" width="10" height="30" fill="#FAF1DF" />
<rect x="350" y="80" width="20" height="10" fill="#1E1C31" />
<rect x="400" y="80" width="20" height="10" fill="#FAF1DF" />
<rect x="520" y="80" width="20" height="10" fill="#FAF1DF" />
<rect x="30" y="90" width="10" height="20" fill="#FAF1DF" />
<rect x="60" y="90" width="10" height="20" fill="#FAF1DF" />
<rect x="90" y="90" width="20" height="20" fill="#FAF1DF" />
<rect x="140" y="90" width="20" height="20" fill="#FAF1DF" />
<rect x="270" y="90" width="10" height="20" fill="#FAF1DF" />
<rect x="320" y="90" width="10" height="20" fill="#FAF1DF" />
<rect x="350" y="90" width="30" height="20" fill="#FAF1DF" />
<rect x="400" y="90" width="20" height="10" fill="#1E1C31" />
<rect x="420" y="90" width="10" height="20" fill="#FAF1DF" />
<rect x="440" y="90" width="10" height="20" fill="#FAF1DF" />
<rect x="460" y="90" width="10" height="20" fill="#FAF1DF" />
<rect x="490" y="90" width="10" height="20" fill="#FAF1DF" />
<rect x="520" y="90" width="20" height="10" fill="#1E1C31" />
<rect x="540" y="90" width="10" height="20" fill="#FAF1DF" />
<rect x="180" y="100" width="10" height="10" fill="#FAF1DF" />
<rect x="400" y="100" width="20" height="10" fill="#FAF1DF" />
<rect x="520" y="100" width="20" height="10" fill="#FAF1DF" />
<rect x="10" y="110" width="560" height="10" fill="#DDDAD3" />
<rect x="10" y="120" width="560" height="10" fill="#EBDDC0" />
<rect x="10" y="130" width="560" height="10" fill="#1E1C31" />
</svg>