<?xml version="1.0" encoding="UTF-8" ?>
<svg version="1.1" width="1920" height="1440" xmlns="http://www.w3.org/2000/svg" shape-rendering="crispEdges">
<rect x="0" y="0" width="1920" height="50" fill="#562F02" />
<rect x="0" y="50" width="30" height="10" fill="#3B2103" />
<rect x="30" y="50" width="10" height="10" fill="#402506" />
<rect x="40" y="50" width="100" height="10" fill="#3B2103" />
<rect x="140" y="50" width="10" height="20" fill="#402506" />
<rect x="150" y="50" width="1620" height="10" fill="#3B2103" />
<rect x="1770" y="50" width="10" height="20" fill="#402506" />
<rect x="1780" y="50" width="100" height="10" fill="#3B2103" />
<rect x="1880" y="50" width="10" height="10" fill="#402506" />
<rect x="1890" y="50" width="30" height="10" fill="#3B2103" />
<rect x="0" y="60" width="10" height="350" fill="#3B2103" />
<rect x="10" y="60" width="10" height="10" fill="#402506" />
<rect x="20" y="60" width="30" height="50" fill="#3B2103" />
<rect x="50" y="60" width="10" height="10" fill="#402506" />
<rect x="60" y="60" width="30" height="50" fill="#3B2103" />
<rect x="90" y="60" width="10" height="10" fill="#402506" />
<rect x="100" y="60" width="40" height="10" fill="#3B2103" />
<rect x="150" y="60" width="50" height="20" fill="#3B2103" />
<rect x="200" y="60" width="10" height="10" fill="#402506" />
<rect x="210" y="60" width="110" height="10" fill="#3B2103" />
<rect x="320" y="60" width="10" height="10" fill="#402506" />
<rect x="330" y="60" width="50" height="10" fill="#3B2103" />
<rect x="380" y="60" width="10" height="10" fill="#402506" />
<rect x="390" y="60" width="40" height="30" fill="#3B2103" />
<rect x="430" y="60" width="10" height="10" fill="#402506" />
<rect x="440" y="60" width="90" height="10" fill="#3B2103" />
<rect x="530" y="60" width="10" height="10" fill="#402506" />
<rect x="540" y="60" width="10" height="290" fill="#3B2103" />
<rect x="550" y="60" width="10" height="20" fill="#402506" />
<rect x="560" y="60" width="800" height="10" fill="#3B2103" />
<rect x="1360" y="60" width="10" height="20" fill="#402506" />
<rect x="1370" y="60" width="10" height="290" fill="#3B2103" />
<rect x="1380" y="60" width="10" height="10" fill="#402506" />
<rect x="1390" y="60" width="90" height="10" fill="#3B2103" />
<rect x="1480" y="60" width="10" height="10" fill="#402506" />
<rect x="1490" y="60" width="40" height="30" fill="#3B2103" />
<rect x="1530" y="60" width="10" height="10" fill="#402506" />
<rect x="1540" y="60" width="50" height="10" fill="#3B2103" />
<rect x="1590" y="60" width="10" height="10" fill="#402506" />
<rect x="1600" y="60" width="110" height="10" fill="#3B2103" />
<rect x="1710" y="60" width="10" height="10" fill="#402506" />
<rect x="1720" y="60" width="50" height="20" fill="#3B2103" />
<rect x="1780" y="60" width="40" height="10" fill="#3B2103" />
<rect x="1820" y="60" width="10" height="10" fill="#402506" />
<rect x="1830" y="60" width="30" height="50" fill="#3B2103" />
<rect x="1860" y="60" width="10" height="10" fill="#402506" />
<rect x="1870" y="60" width="30" height="50" fill="#3B2103" />
<rect x="1900" y="60" width="10" height="10" fill="#402506" />
<rect x="1910" y="60" width="10" height="350" fill="#3B2103" />
<rect x="10" y="70" width="10" height="340" fill="#3B2103" />
<rect x="50" y="70" width="10" height="30" fill="#3B2103" />
<rect x="90" y="70" width="10" height="130" fill="#3B2103" />
<rect x="100" y="70" width="10" height="10" fill="#402506" />
<rect x="110" y="70" width="40" height="10" fill="#3B2103" />
<rect x="200" y="70" width="40" height="140" fill="#3B2103" />
<rect x="240" y="70" width="10" height="30" fill="#402506" />
<rect x="250" y="70" width="80" height="10" fill="#3B2103" />
<rect x="330" y="70" width="10" height="10" fill="#402506" />
<rect x="340" y="70" width="50" height="10" fill="#3B2103" />
<rect x="430" y="70" width="30" height="160" fill="#3B2103" />
<rect x="460" y="70" width="10" height="10" fill="#402506" />
<rect x="470" y="70" width="70" height="20" fill="#3B2103" />
<rect x="560" y="70" width="20" height="100" fill="#3B2103" />
<rect x="580" y="70" width="10" height="10" fill="#402506" />
<rect x="590" y="70" width="740" height="340" fill="#3B2103" />
<rect x="1330" y="70" width="10" height="10" fill="#402506" />
<rect x="1340" y="70" width="20" height="100" fill="#3B2103" />
<rect x="1380" y="70" width="70" height="20" fill="#3B2103" />
<rect x="1450" y="70" width="10" height="10" fill="#402506" />
<rect x="1460" y="70" width="30" height="160" fill="#3B2103" />
<rect x="1530" y="70" width="50" height="10" fill="#3B2103" />
<rect x="1580" y="70" width="10" height="10" fill="#402506" />
<rect x="1590" y="70" width="80" height="10" fill="#3B2103" />
<rect x="1670" y="70" width="10" height="30" fill="#402506" />
<rect x="1680" y="70" width="40" height="140" fill="#3B2103" />
<rect x="1770" y="70" width="40" height="10" fill="#3B2103" />
<rect x="1810" y="70" width="10" height="10" fill="#402506" />
<rect x="1820" y="70" width="10" height="130" fill="#3B2103" />
<rect x="1860" y="70" width="10" height="30" fill="#3B2103" />
<rect x="1900" y="70" width="10" height="340" fill="#3B2103" />
<rect x="100" y="80" width="40" height="100" fill="#3B2103" />
<rect x="140" y="80" width="10" height="20" fill="#402506" />
<rect x="150" y="80" width="40" height="20" fill="#3B2103" />
<rect x="190" y="80" width="10" height="10" fill="#402506" />
<rect x="250" y="80" width="30" height="90" fill="#3B2103" />
<rect x="280" y="80" width="20" height="10" fill="#402506" />
<rect x="300" y="80" width="40" height="70" fill="#3B2103" />
<rect x="340" y="80" width="10" height="10" fill="#402506" />
<rect x="350" y="80" width="40" height="10" fill="#3B2103" />
<rect x="460" y="80" width="10" height="240" fill="#3B2103" />
<rect x="550" y="80" width="10" height="200" fill="#3B2103" />
<rect x="580" y="80" width="10" height="330" fill="#3B2103" />
<rect x="1330" y="80" width="10" height="330" fill="#3B2103" />
<rect x="1360" y="80" width="10" height="200" fill="#3B2103" />
<rect x="1450" y="80" width="10" height="240" fill="#3B2103" />
<rect x="1530" y="80" width="40" height="10" fill="#3B2103" />
<rect x="1570" y="80" width="10" height="10" fill="#402506" />
<rect x="1580" y="80" width="40" height="70" fill="#3B2103" />
<rect x="1620" y="80" width="20" height="10" fill="#402506" />
<rect x="1640" y="80" width="30" height="90" fill="#3B2103" />
<rect x="1720" y="80" width="10" height="10" fill="#402506" />
<rect x="1730" y="80" width="40" height="20" fill="#3B2103" />
<rect x="1770" y="80" width="10" height="20" fill="#402506" />
<rect x="1780" y="80" width="40" height="100" fill="#3B2103" />
<rect x="190" y="90" width="10" height="100" fill="#3B2103" />
<rect x="280" y="90" width="10" height="320" fill="#3B2103" />
<rect x="290" y="90" width="10" height="10" fill="#402506" />
<rect x="340" y="90" width="30" height="60" fill="#3B2103" />
<rect x="370" y="90" width="10" height="10" fill="#402506" />
<rect x="380" y="90" width="30" height="320" fill="#3B2103" />
<rect x="410" y="90" width="10" height="10" fill="#402506" />
<rect x="420" y="90" width="10" height="320" fill="#3B2103" />
<rect x="470" y="90" width="30" height="90" fill="#3B2103" />
<rect x="500" y="90" width="10" height="10" fill="#402506" />
<rect x="510" y="90" width="30" height="100" fill="#3B2103" />
<rect x="1380" y="90" width="30" height="100" fill="#3B2103" />
<rect x="1410" y="90" width="10" height="10" fill="#402506" />
<rect x="1420" y="90" width="30" height="90" fill="#3B2103" />
<rect x="1490" y="90" width="10" height="320" fill="#3B2103" />
<rect x="1500" y="90" width="10" height="10" fill="#402506" />
<rect x="1510" y="90" width="30" height="320" fill="#3B2103" />
<rect x="1540" y="90" width="10" height="10" fill="#402506" />
<rect x="1550" y="90" width="30" height="60" fill="#3B2103" />
<rect x="1620" y="90" width="10" height="10" fill="#402506" />
<rect x="1630" y="90" width="10" height="320" fill="#3B2103" />
<rect x="1720" y="90" width="10" height="100" fill="#3B2103" />
<rect x="50" y="100" width="10" height="10" fill="#402506" />
<rect x="140" y="100" width="30" height="200" fill="#3B2103" />
<rect x="170" y="100" width="10" height="10" fill="#402506" />
<rect x="180" y="100" width="10" height="220" fill="#3B2103" />
<rect x="240" y="100" width="10" height="70" fill="#3B2103" />
<rect x="290" y="100" width="10" height="310" fill="#3B2103" />
<rect x="370" y="100" width="10" height="50" fill="#3B2103" />
<rect x="410" y="100" width="10" height="130" fill="#3B2103" />
<rect x="500" y="100" width="10" height="200" fill="#3B2103" />
<rect x="1410" y="100" width="10" height="200" fill="#3B2103" />
<rect x="1500" y="100" width="10" height="130" fill="#3B2103" />
<rect x="1540" y="100" width="10" height="50" fill="#3B2103" />
<rect x="1620" y="100" width="10" height="310" fill="#3B2103" />
<rect x="1670" y="100" width="10" height="70" fill="#3B2103" />
<rect x="1730" y="100" width="10" height="220" fill="#3B2103" />
<rect x="1740" y="100" width="10" height="10" fill="#402506" />
<rect x="1750" y="100" width="30" height="200" fill="#3B2103" />
<rect x="1860" y="100" width="10" height="10" fill="#402506" />
<rect x="20" y="110" width="10" height="10" fill="#402506" />
<rect x="30" y="110" width="40" height="50" fill="#3B2103" />
<rect x="70" y="110" width="10" height="10" fill="#402506" />
<rect x="80" y="110" width="10" height="70" fill="#3B2103" />
<rect x="170" y="110" width="10" height="210" fill="#3B2103" />
<rect x="1740" y="110" width="10" height="210" fill="#3B2103" />
<rect x="1830" y="110" width="10" height="70" fill="#3B2103" />
<rect x="1840" y="110" width="10" height="10" fill="#402506" />
<rect x="1850" y="110" width="40" height="50" fill="#3B2103" />
<rect x="1890" y="110" width="10" height="10" fill="#402506" />
<rect x="20" y="120" width="10" height="290" fill="#3B2103" />
<rect x="70" y="120" width="10" height="50" fill="#3B2103" />
<rect x="1840" y="120" width="10" height="50" fill="#3B2103" />
<rect x="1890" y="120" width="10" height="290" fill="#3B2103" />
<rect x="300" y="150" width="10" height="10" fill="#402506" />
<rect x="310" y="150" width="50" height="60" fill="#3B2103" />
<rect x="360" y="150" width="20" height="10" fill="#402506" />
<rect x="1540" y="150" width="20" height="10" fill="#402506" />
<rect x="1560" y="150" width="50" height="60" fill="#3B2103" />
<rect x="1610" y="150" width="10" height="10" fill="#402506" />
<rect x="30" y="160" width="30" height="30" fill="#3B2103" />
<rect x="60" y="160" width="10" height="20" fill="#402506" />
<rect x="300" y="160" width="10" height="30" fill="#3B2103" />
<rect x="360" y="160" width="20" height="150" fill="#3B2103" />
<rect x="1540" y="160" width="20" height="150" fill="#3B2103" />
<rect x="1610" y="160" width="10" height="30" fill="#3B2103" />
<rect x="1850" y="160" width="10" height="20" fill="#402506" />
<rect x="1860" y="160" width="30" height="30" fill="#3B2103" />
<rect x="70" y="170" width="10" height="10" fill="#402506" />
<rect x="240" y="170" width="20" height="10" fill="#402506" />
<rect x="260" y="170" width="20" height="110" fill="#3B2103" />
<rect x="560" y="170" width="10" height="10" fill="#402506" />
<rect x="570" y="170" width="10" height="240" fill="#3B2103" />
<rect x="1340" y="170" width="10" height="240" fill="#3B2103" />
<rect x="1350" y="170" width="10" height="10" fill="#402506" />
<rect x="1640" y="170" width="20" height="110" fill="#3B2103" />
<rect x="1660" y="170" width="20" height="10" fill="#402506" />
<rect x="1840" y="170" width="10" height="10" fill="#402506" />
<rect x="60" y="180" width="20" height="50" fill="#3B2103" />
<rect x="80" y="180" width="10" height="20" fill="#402506" />
<rect x="100" y="180" width="30" height="110" fill="#3B2103" />
<rect x="130" y="180" width="10" height="10" fill="#402506" />
<rect x="240" y="180" width="20" height="20" fill="#3B2103" />
<rect x="470" y="180" width="20" height="10" fill="#402506" />
<rect x="490" y="180" width="10" height="230" fill="#3B2103" />
<rect x="560" y="180" width="10" height="230" fill="#3B2103" />
<rect x="1350" y="180" width="10" height="230" fill="#3B2103" />
<rect x="1420" y="180" width="10" height="230" fill="#3B2103" />
<rect x="1430" y="180" width="20" height="10" fill="#402506" />
<rect x="1660" y="180" width="20" height="20" fill="#3B2103" />
<rect x="1780" y="180" width="10" height="10" fill="#402506" />
<rect x="1790" y="180" width="30" height="110" fill="#3B2103" />
<rect x="1830" y="180" width="10" height="20" fill="#402506" />
<rect x="1840" y="180" width="20" height="50" fill="#3B2103" />
<rect x="30" y="190" width="20" height="130" fill="#3B2103" />
<rect x="50" y="190" width="10" height="10" fill="#402506" />
<rect x="130" y="190" width="10" height="220" fill="#3B2103" />
<rect x="190" y="190" width="10" height="20" fill="#402506" />
<rect x="300" y="190" width="10" height="20" fill="#402506" />
<rect x="470" y="190" width="20" height="10" fill="#3B2103" />
<rect x="510" y="190" width="20" height="170" fill="#3B2103" />
<rect x="530" y="190" width="10" height="10" fill="#402506" />
<rect x="1380" y="190" width="10" height="10" fill="#402506" />
<rect x="1390" y="190" width="20" height="170" fill="#3B2103" />
<rect x="1430" y="190" width="20" height="10" fill="#3B2103" />
<rect x="1610" y="190" width="10" height="20" fill="#402506" />
<rect x="1720" y="190" width="10" height="20" fill="#402506" />
<rect x="1780" y="190" width="10" height="220" fill="#3B2103" />
<rect x="1860" y="190" width="10" height="10" fill="#402506" />
<rect x="1870" y="190" width="20" height="130" fill="#3B2103" />
<rect x="50" y="200" width="10" height="120" fill="#3B2103" />
<rect x="80" y="200" width="10" height="90" fill="#3B2103" />
<rect x="90" y="200" width="10" height="10" fill="#402506" />
<rect x="240" y="200" width="20" height="10" fill="#402506" />
<rect x="470" y="200" width="20" height="10" fill="#402506" />
<rect x="530" y="200" width="10" height="210" fill="#3B2103" />
<rect x="1380" y="200" width="10" height="210" fill="#3B2103" />
<rect x="1430" y="200" width="20" height="10" fill="#402506" />
<rect x="1660" y="200" width="20" height="10" fill="#402506" />
<rect x="1820" y="200" width="10" height="10" fill="#402506" />
<rect x="1830" y="200" width="10" height="90" fill="#3B2103" />
<rect x="1860" y="200" width="10" height="120" fill="#3B2103" />
<rect x="90" y="210" width="10" height="70" fill="#3B2103" />
<rect x="190" y="210" width="40" height="10" fill="#3B2103" />
<rect x="230" y="210" width="10" height="10" fill="#402506" />
<rect x="240" y="210" width="20" height="70" fill="#3B2103" />
<rect x="300" y="210" width="10" height="200" fill="#3B2103" />
<rect x="310" y="210" width="10" height="10" fill="#402506" />
<rect x="320" y="210" width="40" height="10" fill="#3B2103" />
<rect x="470" y="210" width="20" height="110" fill="#3B2103" />
<rect x="1430" y="210" width="20" height="110" fill="#3B2103" />
<rect x="1560" y="210" width="40" height="10" fill="#3B2103" />
<rect x="1600" y="210" width="10" height="10" fill="#402506" />
<rect x="1610" y="210" width="10" height="200" fill="#3B2103" />
<rect x="1660" y="210" width="20" height="70" fill="#3B2103" />
<rect x="1680" y="210" width="10" height="10" fill="#402506" />
<rect x="1690" y="210" width="40" height="10" fill="#3B2103" />
<rect x="1820" y="210" width="10" height="70" fill="#3B2103" />
<rect x="190" y="220" width="20" height="190" fill="#3B2103" />
<rect x="210" y="220" width="10" height="20" fill="#402506" />
<rect x="220" y="220" width="20" height="190" fill="#3B2103" />
<rect x="310" y="220" width="10" height="190" fill="#3B2103" />
<rect x="320" y="220" width="10" height="10" fill="#402506" />
<rect x="330" y="220" width="30" height="190" fill="#3B2103" />
<rect x="1560" y="220" width="30" height="190" fill="#3B2103" />
<rect x="1590" y="220" width="10" height="10" fill="#402506" />
<rect x="1600" y="220" width="10" height="190" fill="#3B2103" />
<rect x="1680" y="220" width="20" height="190" fill="#3B2103" />
<rect x="1700" y="220" width="10" height="20" fill="#402506" />
<rect x="1710" y="220" width="20" height="190" fill="#3B2103" />
<rect x="60" y="230" width="10" height="180" fill="#3B2103" />
<rect x="70" y="230" width="10" height="10" fill="#402506" />
<rect x="320" y="230" width="10" height="180" fill="#3B2103" />
<rect x="410" y="230" width="10" height="10" fill="#402506" />
<rect x="430" y="230" width="10" height="20" fill="#402506" />
<rect x="440" y="230" width="20" height="110" fill="#3B2103" />
<rect x="1460" y="230" width="20" height="110" fill="#3B2103" />
<rect x="1480" y="230" width="10" height="20" fill="#402506" />
<rect x="1500" y="230" width="10" height="10" fill="#402506" />
<rect x="1590" y="230" width="10" height="180" fill="#3B2103" />
<rect x="1840" y="230" width="10" height="10" fill="#402506" />
<rect x="1850" y="230" width="10" height="180" fill="#3B2103" />
<rect x="70" y="240" width="10" height="40" fill="#3B2103" />
<rect x="210" y="240" width="10" height="170" fill="#3B2103" />
<rect x="410" y="240" width="10" height="110" fill="#3B2103" />
<rect x="1500" y="240" width="10" height="110" fill="#3B2103" />
<rect x="1700" y="240" width="10" height="170" fill="#3B2103" />
<rect x="1840" y="240" width="10" height="40" fill="#3B2103" />
<rect x="430" y="250" width="10" height="160" fill="#3B2103" />
<rect x="1480" y="250" width="10" height="160" fill="#3B2103" />
<rect x="70" y="280" width="10" height="10" fill="#402506" />
<rect x="90" y="280" width="10" height="10" fill="#402506" />
<rect x="240" y="280" width="10" height="10" fill="#402506" />
<rect x="250" y="280" width="10" height="130" fill="#3B2103" />
<rect x="260" y="280" width="20" height="20" fill="#402506" />
<rect x="550" y="280" width="10" height="20" fill="#402506" />
<rect x="1360" y="280" width="10" height="20" fill="#402506" />
<rect x="1640" y="280" width="20" height="20" fill="#402506" />
<rect x="1660" y="280" width="10" height="130" fill="#3B2103" />
<rect x="1670" y="280" width="10" height="10" fill="#402506" />
<rect x="1820" y="280" width="10" height="10" fill="#402506" />
<rect x="1840" y="280" width="10" height="10" fill="#402506" />
<rect x="70" y="290" width="10" height="100" fill="#3B2103" />
<rect x="80" y="290" width="10" height="10" fill="#402506" />
<rect x="90" y="290" width="30" height="50" fill="#3B2103" />
<rect x="120" y="290" width="10" height="20" fill="#402506" />
<rect x="240" y="290" width="10" height="50" fill="#3B2103" />
<rect x="1670" y="290" width="10" height="50" fill="#3B2103" />
<rect x="1790" y="290" width="10" height="20" fill="#402506" />
<rect x="1800" y="290" width="30" height="50" fill="#3B2103" />
<rect x="1830" y="290" width="10" height="10" fill="#402506" />
<rect x="1840" y="290" width="10" height="100" fill="#3B2103" />
<rect x="80" y="300" width="10" height="90" fill="#3B2103" />
<rect x="140" y="300" width="20" height="50" fill="#3B2103" />
<rect x="160" y="300" width="10" height="10" fill="#402506" />
<rect x="260" y="300" width="20" height="30" fill="#3B2103" />
<rect x="500" y="300" width="10" height="10" fill="#402506" />
<rect x="550" y="300" width="10" height="40" fill="#3B2103" />
<rect x="1360" y="300" width="10" height="40" fill="#3B2103" />
<rect x="1410" y="300" width="10" height="10" fill="#402506" />
<rect x="1640" y="300" width="20" height="30" fill="#3B2103" />
<rect x="1750" y="300" width="10" height="10" fill="#402506" />
<rect x="1760" y="300" width="20" height="50" fill="#3B2103" />
<rect x="1830" y="300" width="10" height="90" fill="#3B2103" />
<rect x="120" y="310" width="10" height="100" fill="#3B2103" />
<rect x="160" y="310" width="10" height="100" fill="#3B2103" />
<rect x="360" y="310" width="10" height="10" fill="#402506" />
<rect x="370" y="310" width="10" height="10" fill="#3B2103" />
<rect x="500" y="310" width="10" height="100" fill="#3B2103" />
<rect x="1410" y="310" width="10" height="100" fill="#3B2103" />
<rect x="1540" y="310" width="10" height="10" fill="#3B2103" />
<rect x="1550" y="310" width="10" height="10" fill="#402506" />
<rect x="1750" y="310" width="10" height="100" fill="#3B2103" />
<rect x="1790" y="310" width="10" height="100" fill="#3B2103" />
<rect x="30" y="320" width="10" height="90" fill="#3B2103" />
<rect x="40" y="320" width="20" height="10" fill="#402506" />
<rect x="170" y="320" width="20" height="10" fill="#402506" />
<rect x="360" y="320" width="10" height="90" fill="#3B2103" />
<rect x="370" y="320" width="10" height="10" fill="#402506" />
<rect x="460" y="320" width="20" height="10" fill="#402506" />
<rect x="480" y="320" width="10" height="90" fill="#3B2103" />
<rect x="1430" y="320" width="10" height="90" fill="#3B2103" />
<rect x="1440" y="320" width="20" height="10" fill="#402506" />
<rect x="1540" y="320" width="10" height="10" fill="#402506" />
<rect x="1550" y="320" width="10" height="90" fill="#3B2103" />
<rect x="1730" y="320" width="20" height="10" fill="#402506" />
<rect x="1860" y="320" width="20" height="10" fill="#402506" />
<rect x="1880" y="320" width="10" height="90" fill="#3B2103" />
<rect x="40" y="330" width="20" height="70" fill="#3B2103" />
<rect x="170" y="330" width="20" height="30" fill="#3B2103" />
<rect x="260" y="330" width="10" height="80" fill="#3B2103" />
<rect x="270" y="330" width="10" height="10" fill="#402506" />
<rect x="370" y="330" width="10" height="80" fill="#3B2103" />
<rect x="460" y="330" width="20" height="80" fill="#3B2103" />
<rect x="1440" y="330" width="20" height="80" fill="#3B2103" />
<rect x="1540" y="330" width="10" height="80" fill="#3B2103" />
<rect x="1640" y="330" width="10" height="10" fill="#402506" />
<rect x="1650" y="330" width="10" height="80" fill="#3B2103" />
<rect x="1730" y="330" width="20" height="30" fill="#3B2103" />
<rect x="1860" y="330" width="20" height="70" fill="#3B2103" />
<rect x="90" y="340" width="10" height="10" fill="#402506" />
<rect x="100" y="340" width="20" height="70" fill="#3B2103" />
<rect x="240" y="340" width="10" height="10" fill="#402506" />
<rect x="270" y="340" width="10" height="70" fill="#3B2103" />
<rect x="440" y="340" width="10" height="20" fill="#402506" />
<rect x="450" y="340" width="10" height="20" fill="#3B2103" />
<rect x="550" y="340" width="10" height="10" fill="#402506" />
<rect x="1360" y="340" width="10" height="10" fill="#402506" />
<rect x="1460" y="340" width="10" height="20" fill="#3B2103" />
<rect x="1470" y="340" width="10" height="20" fill="#402506" />
<rect x="1640" y="340" width="10" height="70" fill="#3B2103" />
<rect x="1670" y="340" width="10" height="10" fill="#402506" />
<rect x="1800" y="340" width="20" height="70" fill="#3B2103" />
<rect x="1820" y="340" width="10" height="10" fill="#402506" />
<rect x="90" y="350" width="10" height="60" fill="#3B2103" />
<rect x="140" y="350" width="10" height="10" fill="#402506" />
<rect x="150" y="350" width="10" height="60" fill="#3B2103" />
<rect x="240" y="350" width="10" height="60" fill="#3B2103" />
<rect x="410" y="350" width="10" height="10" fill="#402506" />
<rect x="540" y="350" width="10" height="10" fill="#402506" />
<rect x="550" y="350" width="10" height="60" fill="#3B2103" />
<rect x="1360" y="350" width="10" height="60" fill="#3B2103" />
<rect x="1370" y="350" width="10" height="10" fill="#402506" />
<rect x="1500" y="350" width="10" height="10" fill="#402506" />
<rect x="1670" y="350" width="10" height="60" fill="#3B2103" />
<rect x="1760" y="350" width="10" height="60" fill="#3B2103" />
<rect x="1770" y="350" width="10" height="10" fill="#402506" />
<rect x="1820" y="350" width="10" height="60" fill="#3B2103" />
<rect x="140" y="360" width="10" height="50" fill="#3B2103" />
<rect x="170" y="360" width="10" height="20" fill="#402506" />
<rect x="180" y="360" width="10" height="50" fill="#3B2103" />
<rect x="410" y="360" width="10" height="50" fill="#3B2103" />
<rect x="440" y="360" width="10" height="50" fill="#3B2103" />
<rect x="450" y="360" width="10" height="20" fill="#402506" />
<rect x="510" y="360" width="10" height="50" fill="#3B2103" />
<rect x="520" y="360" width="10" height="10" fill="#402506" />
<rect x="540" y="360" width="10" height="50" fill="#3B2103" />
<rect x="1370" y="360" width="10" height="50" fill="#3B2103" />
<rect x="1390" y="360" width="10" height="10" fill="#402506" />
<rect x="1400" y="360" width="10" height="50" fill="#3B2103" />
<rect x="1460" y="360" width="10" height="20" fill="#402506" />
<rect x="1470" y="360" width="10" height="50" fill="#3B2103" />
<rect x="1500" y="360" width="10" height="50" fill="#3B2103" />
<rect x="1730" y="360" width="10" height="50" fill="#3B2103" />
<rect x="1740" y="360" width="10" height="20" fill="#402506" />
<rect x="1770" y="360" width="10" height="50" fill="#3B2103" />
<rect x="520" y="370" width="10" height="40" fill="#3B2103" />
<rect x="1390" y="370" width="10" height="40" fill="#3B2103" />
<rect x="170" y="380" width="10" height="30" fill="#3B2103" />
<rect x="450" y="380" width="10" height="30" fill="#3B2103" />
<rect x="1460" y="380" width="10" height="30" fill="#3B2103" />
<rect x="1740" y="380" width="10" height="30" fill="#3B2103" />
<rect x="70" y="390" width="20" height="10" fill="#402506" />
<rect x="1830" y="390" width="20" height="10" fill="#402506" />
<rect x="40" y="400" width="10" height="10" fill="#402506" />
<rect x="50" y="400" width="10" height="10" fill="#3B2103" />
<rect x="70" y="400" width="20" height="10" fill="#3B2103" />
<rect x="1830" y="400" width="20" height="10" fill="#3B2103" />
<rect x="1860" y="400" width="10" height="10" fill="#3B2103" />
<rect x="1870" y="400" width="10" height="10" fill="#402506" />
<rect x="0" y="410" width="1920" height="20" fill="#AE711C" />
<rect x="0" y="430" width="1920" height="10" fill="#AD6B11" />
<rect x="0" y="440" width="1920" height="20" fill="#9E600B" />
<rect x="0" y="460" width="1920" height="10" fill="#AD6B11" />
<rect x="0" y="470" width="1920" height="20" fill="#9E600B" />
<rect x="0" y="490" width="1920" height="10" fill="#AD6B11" />
<rect x="0" y="500" width="1920" height="20" fill="#9E600B" />
<rect x="0" y="520" width="1920" height="10" fill="#AD6B11" />
<rect x="0" y="530" width="1920" height="20" fill="#9E600B" />
<rect x="0" y="550" width="1920" height="10" fill="#AD6B11" />
<rect x="0" y="560" width="1920" height="510" fill="#9E600B" />
<rect x="0" y="1070" width="1920" height="10" fill="#71433B" />
<rect x="0" y="1080" width="1920" height="10" fill="#5A332D" />
<rect x="0" y="1090" width="1920" height="10" fill="#663931" />
<rect x="0" y="1100" width="1920" height="10" fill="#71433B" />
<rect x="0" y="1110" width="1920" height="10" fill="#5A332D" />
<rect x="0" y="1120" width="1920" height="10" fill="#663931" />
<rect x="0" y="1130" width="1920" height="10" fill="#71433B" />
<rect x="0" y="1140" width="1920" height="10" fill="#5A332D" />
<rect x="0" y="1150" width="1920" height="10" fill="#663931" />
<rect x="0" y="1160" width="1920" height="10" fill="#71433B" />
<rect x="0" y="1170" width="1920" height="10" fill="#5A332D" />
<rect x="0" y="1180" width="1920" height="10" fill="#663931" />
<rect x="0" y="1190" width="1920" height="10" fill="#71433B" />
<rect x="0" y="1200" width="1920" height="10" fill="#5A332D" />
<rect x="0" y="1210" width="1920" height="10" fill="#663931" />
<rect x="0" y="1220" width="1920" height="10" fill="#71433B" />
<rect x="0" y="1230" width="1920" height="10" fill="#5A332D" />
<rect x="0" y="1240" width="1920" height="10" fill="#663931" />
<rect x="0" y="1250" width="1920" height="10" fill="#71433B" />
<rect x="0" y="1260" width="1920" height="10" fill="#5A332D" />
<rect x="0" y="1270" width="1920" height="10" fill="#663931" />
<rect x="0" y="1280" width="1920" height="10" fill="#71433B" />
<rect x="0" y="1290" width="1920" height="10" fill="#5A332D" />
<rect x="0" y="1300" width="1920" height="10" fill="#663931" />
<rect x="0" y="1310" width="1920" height="10" fill="#71433B" />
<rect x="0" y="1320" width="1920" height="10" fill="#5A332D" />
<rect x="0" y="1330" width="1920" height="10" fill="#663931" />
<rect x="0" y="1340" width="1920" height="10" fill="#71433B" />
<rect x="0" y="1350" width="1920" height="10" fill="#5A332D" />
<rect x="0" y="1360" width="1920" height="10" fill="#663931" />
<rect x="0" y="1370" width="1920" height="10" fill="#71433B" />
<rect x="0" y="1380" width="1920" height="10" fill="#5A332D" />
<rect x="0" y="1390" width="1920" height="10" fill="#663931" />
<rect x="0" y="1400" width="1920" height="10" fill="#71433B" />
<rect x="0" y="1410" width="1920" height="10" fill="#5A332D" />
<rect x="0" y="1420" width="1920" height="10" fill="#663931" />
<rect x="0" y="1430" width="1920" height="10" fill="#71433B" />
</svg>