<?xml version="1.0" encoding="UTF-8" ?>
<svg version="1.1" width="170" height="500" xmlns="http://www.w3.org/2000/svg" shape-rendering="crispEdges">
<rect x="0" y="0" width="170" height="10" fill="#1E1C31" />
<rect x="0" y="10" width="170" height="370" fill="#F8E1B3" />
<rect x="0" y="380" width="80" height="30" fill="#F8E1B3" />
<rect x="80" y="380" width="20" height="10" fill="#FFFFFF" />
<rect x="100" y="380" width="70" height="10" fill="#F8E1B3" />
<rect x="80" y="390" width="20" height="10" fill="#F8E1B3" />
<rect x="100" y="390" width="10" height="40" fill="#FFFFFF" />
<rect x="110" y="390" width="60" height="80" fill="#F8E1B3" />
<rect x="80" y="400" width="20" height="10" fill="#FFFFFF" />
<rect x="0" y="410" width="70" height="60" fill="#F8E1B3" />
<rect x="70" y="410" width="10" height="10" fill="#FFFFFF" />
<rect x="80" y="410" width="20" height="10" fill="#F8E1B3" />
<rect x="70" y="420" width="10" height="50" fill="#F8E1B3" />
<rect x="80" y="420" width="20" height="10" fill="#FFFFFF" />
<rect x="80" y="430" width="30" height="40" fill="#F8E1B3" />
<rect x="0" y="470" width="170" height="10" fill="#DED0AE" />
<rect x="0" y="480" width="170" height="10" fill="#EBDDC0" />
<rect x="0" y="490" width="170" height="10" fill="#1E1C31" />
</svg>