<?xml version="1.0" encoding="UTF-8" ?>
<svg version="1.1" width="580" height="140" xmlns="http://www.w3.org/2000/svg" shape-rendering="crispEdges">
<rect x="0" y="0" width="580" height="10" fill="#1E1C31" />
<rect x="0" y="10" width="10" height="130" fill="#1E1C31" />
<rect x="10" y="10" width="560" height="30" fill="#FAF1DF" />
<rect x="570" y="10" width="10" height="130" fill="#1E1C31" />
<rect x="10" y="40" width="200" height="70" fill="#FAF1DF" />
<rect x="210" y="40" width="30" height="10" fill="#1E1C31" />
<rect x="240" y="40" width="20" height="10" fill="#FAF1DF" />
<rect x="260" y="40" width="10" height="60" fill="#1E1C31" />
<rect x="270" y="40" width="300" height="10" fill="#FAF1DF" />
<rect x="210" y="50" width="10" height="50" fill="#1E1C31" />
<rect x="220" y="50" width="20" height="20" fill="#FAF1DF" />
<rect x="240" y="50" width="10" height="20" fill="#1E1C31" />
<rect x="250" y="50" width="10" height="60" fill="#FAF1DF" />
<rect x="270" y="50" width="20" height="30" fill="#FAF1DF" />
<rect x="290" y="50" width="20" height="10" fill="#1E1C31" />
<rect x="310" y="50" width="20" height="10" fill="#FAF1DF" />
<rect x="330" y="50" width="10" height="30" fill="#1E1C31" />
<rect x="340" y="50" width="20" height="30" fill="#FAF1DF" />
<rect x="360" y="50" width="10" height="50" fill="#1E1C31" />
<rect x="370" y="50" width="200" height="60" fill="#FAF1DF" />
<rect x="290" y="60" width="20" height="10" fill="#FAF1DF" />
<rect x="310" y="60" width="10" height="40" fill="#1E1C31" />
<rect x="320" y="60" width="10" height="50" fill="#FAF1DF" />
<rect x="220" y="70" width="20" height="10" fill="#1E1C31" />
<rect x="240" y="70" width="10" height="40" fill="#FAF1DF" />
<rect x="290" y="70" width="20" height="10" fill="#1E1C31" />
<rect x="220" y="80" width="20" height="30" fill="#FAF1DF" />
<rect x="270" y="80" width="10" height="30" fill="#FAF1DF" />
<rect x="280" y="80" width="10" height="10" fill="#1E1C31" />
<rect x="290" y="80" width="20" height="10" fill="#FAF1DF" />
<rect x="330" y="80" width="10" height="30" fill="#FAF1DF" />
<rect x="340" y="80" width="20" height="10" fill="#1E1C31" />
<rect x="280" y="90" width="10" height="20" fill="#FAF1DF" />
<rect x="290" y="90" width="20" height="10" fill="#1E1C31" />
<rect x="340" y="90" width="20" height="10" fill="#FAF1DF" />
<rect x="210" y="100" width="10" height="10" fill="#FAF1DF" />
<rect x="260" y="100" width="10" height="10" fill="#FAF1DF" />
<rect x="290" y="100" width="30" height="10" fill="#FAF1DF" />
<rect x="340" y="100" width="20" height="10" fill="#1E1C31" />
<rect x="360" y="100" width="10" height="10" fill="#FAF1DF" />
<rect x="10" y="110" width="560" height="10" fill="#DDDAD3" />
<rect x="10" y="120" width="560" height="10" fill="#EBDDC0" />
<rect x="10" y="130" width="560" height="10" fill="#1E1C31" />
</svg>