<?xml version="1.0" encoding="UTF-8" ?>
<svg version="1.1" width="1860" height="320" xmlns="http://www.w3.org/2000/svg" shape-rendering="crispEdges">
<rect x="0" y="0" width="1730" height="10" fill="#282640" />
<rect x="0" y="10" width="1730" height="10" fill="#C37100" />
<rect x="1730" y="10" width="30" height="10" fill="#282640" />
<rect x="0" y="20" width="1730" height="10" fill="#F8E1B3" />
<rect x="1730" y="20" width="30" height="10" fill="#C37100" />
<rect x="1760" y="20" width="20" height="10" fill="#282640" />
<rect x="0" y="30" width="1730" height="260" fill="#FAF1DF" />
<rect x="1730" y="30" width="30" height="10" fill="#F8E1B3" />
<rect x="1760" y="30" width="20" height="10" fill="#C37100" />
<rect x="1780" y="30" width="10" height="10" fill="#282640" />
<rect x="1730" y="40" width="30" height="240" fill="#FAF1DF" />
<rect x="1760" y="40" width="20" height="10" fill="#F8E1B3" />
<rect x="1780" y="40" width="10" height="10" fill="#C37100" />
<rect x="1790" y="40" width="20" height="10" fill="#282640" />
<rect x="1760" y="50" width="20" height="220" fill="#FAF1DF" />
<rect x="1780" y="50" width="10" height="10" fill="#F8E1B3" />
<rect x="1790" y="50" width="20" height="10" fill="#C37100" />
<rect x="1810" y="50" width="10" height="20" fill="#282640" />
<rect x="1780" y="60" width="10" height="200" fill="#FAF1DF" />
<rect x="1790" y="60" width="10" height="10" fill="#F8E1B3" />
<rect x="1800" y="60" width="10" height="10" fill="#C37100" />
<rect x="1790" y="70" width="10" height="180" fill="#FAF1DF" />
<rect x="1800" y="70" width="10" height="10" fill="#F8E1B3" />
<rect x="1810" y="70" width="10" height="10" fill="#C37100" />
<rect x="1820" y="70" width="10" height="10" fill="#282640" />
<rect x="1800" y="80" width="10" height="160" fill="#FAF1DF" />
<rect x="1810" y="80" width="10" height="20" fill="#F8E1B3" />
<rect x="1820" y="80" width="10" height="20" fill="#C37100" />
<rect x="1830" y="80" width="10" height="20" fill="#282640" />
<rect x="1810" y="100" width="10" height="120" fill="#FAF1DF" />
<rect x="1820" y="100" width="10" height="30" fill="#F8E1B3" />
<rect x="1830" y="100" width="10" height="30" fill="#C37100" />
<rect x="1840" y="100" width="10" height="30" fill="#282640" />
<rect x="1820" y="130" width="10" height="60" fill="#FAF1DF" />
<rect x="1830" y="130" width="10" height="60" fill="#F8E1B3" />
<rect x="1840" y="130" width="10" height="60" fill="#C37100" />
<rect x="1850" y="130" width="10" height="60" fill="#282640" />
<rect x="1820" y="190" width="10" height="30" fill="#F8E1B3" />
<rect x="1830" y="190" width="10" height="30" fill="#C37100" />
<rect x="1840" y="190" width="10" height="30" fill="#282640" />
<rect x="1810" y="220" width="10" height="20" fill="#F8E1B3" />
<rect x="1820" y="220" width="10" height="20" fill="#C37100" />
<rect x="1830" y="220" width="10" height="20" fill="#282640" />
<rect x="1800" y="240" width="10" height="10" fill="#F8E1B3" />
<rect x="1810" y="240" width="10" height="10" fill="#C37100" />
<rect x="1820" y="240" width="10" height="10" fill="#282640" />
<rect x="1790" y="250" width="10" height="10" fill="#F8E1B3" />
<rect x="1800" y="250" width="10" height="20" fill="#C37100" />
<rect x="1810" y="250" width="10" height="20" fill="#282640" />
<rect x="1780" y="260" width="10" height="10" fill="#F8E1B3" />
<rect x="1790" y="260" width="10" height="10" fill="#C37100" />
<rect x="1760" y="270" width="20" height="10" fill="#F8E1B3" />
<rect x="1780" y="270" width="10" height="10" fill="#C37100" />
<rect x="1790" y="270" width="20" height="10" fill="#282640" />
<rect x="1730" y="280" width="30" height="10" fill="#F8E1B3" />
<rect x="1760" y="280" width="20" height="10" fill="#C37100" />
<rect x="1780" y="280" width="10" height="10" fill="#282640" />
<rect x="0" y="290" width="1730" height="10" fill="#F8E1B3" />
<rect x="1730" y="290" width="30" height="10" fill="#C37100" />
<rect x="1760" y="290" width="20" height="10" fill="#282640" />
<rect x="0" y="300" width="1730" height="10" fill="#C37100" />
<rect x="1730" y="300" width="30" height="10" fill="#282640" />
<rect x="0" y="310" width="1730" height="10" fill="#282640" />
</svg>