<?xml version="1.0" encoding="UTF-8" ?>
<svg version="1.1" width="320" height="320" xmlns="http://www.w3.org/2000/svg" shape-rendering="crispEdges">
<rect x="0" y="20" width="20" height="10" fill="#FBF236" />
<rect x="20" y="20" width="10" height="10" fill="#76428A" />
<rect x="30" y="20" width="10" height="10" fill="#521A67" />
<rect x="40" y="20" width="10" height="10" fill="#76428A" />
<rect x="50" y="20" width="10" height="10" fill="#521A67" />
<rect x="60" y="20" width="10" height="10" fill="#76428A" />
<rect x="70" y="20" width="10" height="10" fill="#521A67" />
<rect x="80" y="20" width="10" height="10" fill="#76428A" />
<rect x="90" y="20" width="10" height="10" fill="#521A67" />
<rect x="100" y="20" width="10" height="10" fill="#76428A" />
<rect x="110" y="20" width="10" height="10" fill="#521A67" />
<rect x="120" y="20" width="10" height="10" fill="#76428A" />
<rect x="130" y="20" width="10" height="10" fill="#521A67" />
<rect x="170" y="20" width="10" height="10" fill="#521A67" />
<rect x="180" y="20" width="10" height="10" fill="#76428A" />
<rect x="190" y="20" width="10" height="10" fill="#521A67" />
<rect x="200" y="20" width="10" height="10" fill="#76428A" />
<rect x="210" y="20" width="10" height="10" fill="#521A67" />
<rect x="220" y="20" width="10" height="10" fill="#76428A" />
<rect x="230" y="20" width="10" height="10" fill="#521A67" />
<rect x="240" y="20" width="10" height="10" fill="#76428A" />
<rect x="250" y="20" width="10" height="10" fill="#521A67" />
<rect x="260" y="20" width="10" height="10" fill="#76428A" />
<rect x="270" y="20" width="10" height="10" fill="#521A67" />
<rect x="280" y="20" width="10" height="10" fill="#76428A" />
<rect x="290" y="20" width="20" height="10" fill="#FBF236" />
<rect x="0" y="30" width="10" height="10" fill="#FBF236" />
<rect x="10" y="30" width="10" height="20" fill="#521A67" />
<rect x="20" y="30" width="120" height="10" fill="#D0C3A8" />
<rect x="140" y="30" width="10" height="10" fill="#76428A" />
<rect x="160" y="30" width="10" height="10" fill="#76428A" />
<rect x="170" y="30" width="120" height="10" fill="#D0C3A8" />
<rect x="290" y="30" width="10" height="20" fill="#521A67" />
<rect x="300" y="30" width="10" height="10" fill="#FBF236" />
<rect x="0" y="40" width="10" height="10" fill="#521A67" />
<rect x="20" y="40" width="10" height="230" fill="#D0C3A8" />
<rect x="30" y="40" width="120" height="10" fill="#FAF1DF" />
<rect x="150" y="40" width="10" height="10" fill="#D0C3A8" />
<rect x="160" y="40" width="120" height="10" fill="#FAF1DF" />
<rect x="280" y="40" width="10" height="230" fill="#D0C3A8" />
<rect x="300" y="40" width="10" height="10" fill="#521A67" />
<rect x="0" y="50" width="10" height="10" fill="#833D9E" />
<rect x="10" y="50" width="10" height="10" fill="#76428A" />
<rect x="30" y="50" width="10" height="210" fill="#FAF1DF" />
<rect x="40" y="50" width="10" height="10" fill="#E1D7D1" />
<rect x="50" y="50" width="10" height="10" fill="#E1D7C2" />
<rect x="60" y="50" width="60" height="10" fill="#643874" />
<rect x="120" y="50" width="20" height="10" fill="#E1D7C2" />
<rect x="140" y="50" width="10" height="140" fill="#FAF1DF" />
<rect x="150" y="50" width="10" height="140" fill="#BFAC83" />
<rect x="160" y="50" width="10" height="140" fill="#FAF1DF" />
<rect x="170" y="50" width="20" height="10" fill="#E1D7C2" />
<rect x="190" y="50" width="60" height="10" fill="#643874" />
<rect x="250" y="50" width="20" height="10" fill="#E1D7C2" />
<rect x="270" y="50" width="10" height="210" fill="#FAF1DF" />
<rect x="290" y="50" width="10" height="10" fill="#76428A" />
<rect x="300" y="50" width="10" height="10" fill="#833D9E" />
<rect x="0" y="60" width="10" height="10" fill="#76428A" />
<rect x="10" y="60" width="10" height="20" fill="#521A67" />
<rect x="40" y="60" width="10" height="10" fill="#FAF1DF" />
<rect x="50" y="60" width="10" height="20" fill="#643874" />
<rect x="60" y="60" width="60" height="10" fill="#FAF1DF" />
<rect x="120" y="60" width="10" height="10" fill="#643874" />
<rect x="130" y="60" width="10" height="10" fill="#FAF1DF" />
<rect x="170" y="60" width="10" height="10" fill="#FAF1DF" />
<rect x="180" y="60" width="10" height="10" fill="#643874" />
<rect x="190" y="60" width="60" height="10" fill="#FAF1DF" />
<rect x="250" y="60" width="10" height="10" fill="#76428A" />
<rect x="260" y="60" width="10" height="10" fill="#FAF1DF" />
<rect x="290" y="60" width="10" height="20" fill="#521A67" />
<rect x="300" y="60" width="10" height="10" fill="#76428A" />
<rect x="0" y="70" width="10" height="10" fill="#521A67" />
<rect x="40" y="70" width="10" height="10" fill="#E1D7C2" />
<rect x="60" y="70" width="60" height="10" fill="#D2F4BB" />
<rect x="120" y="70" width="20" height="10" fill="#E1D7C2" />
<rect x="170" y="70" width="20" height="10" fill="#E1D7C2" />
<rect x="190" y="70" width="60" height="10" fill="#D2F4BB" />
<rect x="250" y="70" width="20" height="10" fill="#E1D7C2" />
<rect x="300" y="70" width="10" height="10" fill="#521A67" />
<rect x="0" y="80" width="10" height="10" fill="#833D9E" />
<rect x="10" y="80" width="10" height="10" fill="#76428A" />
<rect x="40" y="80" width="20" height="10" fill="#FAF1DF" />
<rect x="60" y="80" width="20" height="10" fill="#D2F4BB" />
<rect x="80" y="80" width="40" height="10" fill="#6ABE30" />
<rect x="120" y="80" width="20" height="10" fill="#FAF1DF" />
<rect x="170" y="80" width="20" height="10" fill="#FAF1DF" />
<rect x="190" y="80" width="40" height="10" fill="#6ABE30" />
<rect x="230" y="80" width="20" height="10" fill="#D2F4BB" />
<rect x="250" y="80" width="20" height="10" fill="#FAF1DF" />
<rect x="290" y="80" width="10" height="10" fill="#76428A" />
<rect x="300" y="80" width="10" height="10" fill="#833D9E" />
<rect x="0" y="90" width="10" height="10" fill="#76428A" />
<rect x="10" y="90" width="10" height="20" fill="#521A67" />
<rect x="40" y="90" width="20" height="10" fill="#E1D7C2" />
<rect x="60" y="90" width="10" height="50" fill="#D2F4BB" />
<rect x="70" y="90" width="20" height="40" fill="#6ABE30" />
<rect x="90" y="90" width="10" height="20" fill="#FAF1DF" />
<rect x="100" y="90" width="20" height="40" fill="#000000" />
<rect x="120" y="90" width="20" height="10" fill="#E1D7C2" />
<rect x="170" y="90" width="20" height="10" fill="#E1D7C2" />
<rect x="190" y="90" width="20" height="40" fill="#000000" />
<rect x="210" y="90" width="10" height="20" fill="#FAF1DF" />
<rect x="220" y="90" width="20" height="40" fill="#6ABE30" />
<rect x="240" y="90" width="10" height="50" fill="#D2F4BB" />
<rect x="250" y="90" width="20" height="10" fill="#E1D7C2" />
<rect x="290" y="90" width="10" height="20" fill="#521A67" />
<rect x="300" y="90" width="10" height="10" fill="#76428A" />
<rect x="0" y="100" width="10" height="10" fill="#521A67" />
<rect x="40" y="100" width="20" height="10" fill="#FAF1DF" />
<rect x="120" y="100" width="20" height="10" fill="#FAF1DF" />
<rect x="170" y="100" width="20" height="10" fill="#FAF1DF" />
<rect x="250" y="100" width="20" height="10" fill="#FAF1DF" />
<rect x="300" y="100" width="10" height="10" fill="#521A67" />
<rect x="0" y="110" width="10" height="10" fill="#833D9E" />
<rect x="10" y="110" width="10" height="10" fill="#76428A" />
<rect x="40" y="110" width="20" height="10" fill="#E1D7C2" />
<rect x="90" y="110" width="10" height="10" fill="#6ABE30" />
<rect x="120" y="110" width="20" height="10" fill="#E1D7C2" />
<rect x="170" y="110" width="20" height="10" fill="#E1D7C2" />
<rect x="210" y="110" width="10" height="10" fill="#6ABE30" />
<rect x="250" y="110" width="20" height="10" fill="#E1D7C2" />
<rect x="290" y="110" width="10" height="10" fill="#76428A" />
<rect x="300" y="110" width="10" height="10" fill="#833D9E" />
<rect x="0" y="120" width="10" height="10" fill="#76428A" />
<rect x="10" y="120" width="10" height="20" fill="#521A67" />
<rect x="40" y="120" width="20" height="10" fill="#FAF1DF" />
<rect x="90" y="120" width="10" height="10" fill="#FAF1DF" />
<rect x="120" y="120" width="20" height="10" fill="#FAF1DF" />
<rect x="170" y="120" width="20" height="10" fill="#FAF1DF" />
<rect x="210" y="120" width="10" height="10" fill="#FAF1DF" />
<rect x="250" y="120" width="20" height="10" fill="#FAF1DF" />
<rect x="290" y="120" width="10" height="20" fill="#521A67" />
<rect x="300" y="120" width="10" height="10" fill="#76428A" />
<rect x="0" y="130" width="10" height="10" fill="#521A67" />
<rect x="40" y="130" width="20" height="10" fill="#E1D7C2" />
<rect x="70" y="130" width="10" height="10" fill="#D2F4BB" />
<rect x="80" y="130" width="40" height="10" fill="#6ABE30" />
<rect x="120" y="130" width="20" height="10" fill="#E1D7C2" />
<rect x="170" y="130" width="20" height="10" fill="#E1D7C2" />
<rect x="190" y="130" width="40" height="10" fill="#6ABE30" />
<rect x="230" y="130" width="10" height="10" fill="#D2F4BB" />
<rect x="250" y="130" width="20" height="10" fill="#E1D7C2" />
<rect x="300" y="130" width="10" height="10" fill="#521A67" />
<rect x="0" y="140" width="20" height="10" fill="#833D9E" />
<rect x="40" y="140" width="100" height="10" fill="#FAF1DF" />
<rect x="170" y="140" width="100" height="10" fill="#FAF1DF" />
<rect x="290" y="140" width="10" height="10" fill="#76428A" />
<rect x="300" y="140" width="10" height="10" fill="#833D9E" />
<rect x="0" y="150" width="10" height="10" fill="#833D9E" />
<rect x="10" y="150" width="10" height="20" fill="#521A67" />
<rect x="40" y="150" width="100" height="10" fill="#E1D7C2" />
<rect x="170" y="150" width="100" height="10" fill="#E1D7C2" />
<rect x="290" y="150" width="10" height="20" fill="#521A67" />
<rect x="300" y="150" width="10" height="10" fill="#76428A" />
<rect x="0" y="160" width="10" height="10" fill="#521A67" />
<rect x="40" y="160" width="100" height="10" fill="#FAF1DF" />
<rect x="170" y="160" width="100" height="10" fill="#FAF1DF" />
<rect x="300" y="160" width="10" height="10" fill="#521A67" />
<rect x="0" y="170" width="20" height="10" fill="#833D9E" />
<rect x="40" y="170" width="100" height="10" fill="#E1D7C2" />
<rect x="170" y="170" width="100" height="10" fill="#E1D7C2" />
<rect x="290" y="170" width="10" height="10" fill="#76428A" />
<rect x="300" y="170" width="10" height="10" fill="#833D9E" />
<rect x="0" y="180" width="10" height="10" fill="#833D9E" />
<rect x="10" y="180" width="10" height="20" fill="#521A67" />
<rect x="40" y="180" width="100" height="10" fill="#FAF1DF" />
<rect x="170" y="180" width="100" height="10" fill="#FAF1DF" />
<rect x="290" y="180" width="10" height="20" fill="#521A67" />
<rect x="300" y="180" width="10" height="10" fill="#76428A" />
<rect x="0" y="190" width="10" height="10" fill="#521A67" />
<rect x="40" y="190" width="30" height="10" fill="#E1D7C2" />
<rect x="70" y="190" width="180" height="20" fill="#350707" />
<rect x="250" y="190" width="20" height="10" fill="#E1D7C2" />
<rect x="300" y="190" width="10" height="10" fill="#521A67" />
<rect x="0" y="200" width="20" height="10" fill="#833D9E" />
<rect x="40" y="200" width="30" height="10" fill="#FAF1DF" />
<rect x="250" y="200" width="20" height="10" fill="#FAF1DF" />
<rect x="290" y="200" width="10" height="10" fill="#76428A" />
<rect x="300" y="200" width="10" height="10" fill="#833D9E" />
<rect x="0" y="210" width="10" height="10" fill="#76428A" />
<rect x="10" y="210" width="10" height="20" fill="#521A67" />
<rect x="40" y="210" width="40" height="10" fill="#E1D7C2" />
<rect x="80" y="210" width="10" height="10" fill="#350707" />
<rect x="90" y="210" width="140" height="10" fill="#D95763" />
<rect x="230" y="210" width="10" height="10" fill="#350707" />
<rect x="240" y="210" width="30" height="10" fill="#E1D7C2" />
<rect x="290" y="210" width="10" height="20" fill="#521A67" />
<rect x="300" y="210" width="10" height="10" fill="#76428A" />
<rect x="0" y="220" width="10" height="10" fill="#521A67" />
<rect x="40" y="220" width="50" height="10" fill="#FAF1DF" />
<rect x="90" y="220" width="10" height="10" fill="#350707" />
<rect x="100" y="220" width="110" height="10" fill="#D95763" />
<rect x="210" y="220" width="20" height="10" fill="#350707" />
<rect x="230" y="220" width="40" height="10" fill="#FAF1DF" />
<rect x="300" y="220" width="10" height="10" fill="#521A67" />
<rect x="0" y="230" width="10" height="10" fill="#833D9E" />
<rect x="10" y="230" width="10" height="10" fill="#76428A" />
<rect x="40" y="230" width="60" height="10" fill="#E1D7C2" />
<rect x="100" y="230" width="110" height="10" fill="#350707" />
<rect x="210" y="230" width="60" height="10" fill="#E1D7C2" />
<rect x="290" y="230" width="10" height="10" fill="#76428A" />
<rect x="300" y="230" width="10" height="10" fill="#833D9E" />
<rect x="0" y="240" width="10" height="10" fill="#76428A" />
<rect x="10" y="240" width="10" height="20" fill="#521A67" />
<rect x="40" y="240" width="110" height="10" fill="#FAF1DF" />
<rect x="150" y="240" width="10" height="10" fill="#BFAC83" />
<rect x="160" y="240" width="110" height="10" fill="#FAF1DF" />
<rect x="290" y="240" width="10" height="20" fill="#521A67" />
<rect x="300" y="240" width="10" height="10" fill="#76428A" />
<rect x="0" y="250" width="10" height="10" fill="#521A67" />
<rect x="40" y="250" width="100" height="10" fill="#E1D7C2" />
<rect x="140" y="250" width="10" height="10" fill="#FAF1DF" />
<rect x="150" y="250" width="10" height="10" fill="#D0C3A8" />
<rect x="160" y="250" width="10" height="10" fill="#FAF1DF" />
<rect x="170" y="250" width="100" height="10" fill="#E1D7C2" />
<rect x="300" y="250" width="10" height="10" fill="#521A67" />
<rect x="0" y="260" width="10" height="20" fill="#FBF236" />
<rect x="10" y="260" width="10" height="10" fill="#76428A" />
<rect x="30" y="260" width="20" height="10" fill="#D0C3A8" />
<rect x="50" y="260" width="20" height="40" fill="#D95763" />
<rect x="70" y="260" width="70" height="10" fill="#D0C3A8" />
<rect x="140" y="260" width="10" height="10" fill="#76428A" />
<rect x="160" y="260" width="10" height="10" fill="#76428A" />
<rect x="170" y="260" width="110" height="10" fill="#D0C3A8" />
<rect x="290" y="260" width="10" height="10" fill="#833D9E" />
<rect x="300" y="260" width="10" height="20" fill="#FBF236" />
<rect x="10" y="270" width="10" height="10" fill="#FBF236" />
<rect x="20" y="270" width="10" height="10" fill="#76428A" />
<rect x="30" y="270" width="10" height="10" fill="#521A67" />
<rect x="40" y="270" width="10" height="10" fill="#76428A" />
<rect x="70" y="270" width="10" height="10" fill="#521A67" />
<rect x="80" y="270" width="10" height="10" fill="#76428A" />
<rect x="90" y="270" width="10" height="10" fill="#521A67" />
<rect x="100" y="270" width="10" height="10" fill="#76428A" />
<rect x="110" y="270" width="10" height="10" fill="#521A67" />
<rect x="120" y="270" width="10" height="10" fill="#76428A" />
<rect x="130" y="270" width="10" height="10" fill="#521A67" />
<rect x="170" y="270" width="10" height="10" fill="#521A67" />
<rect x="180" y="270" width="10" height="10" fill="#833D9E" />
<rect x="190" y="270" width="10" height="10" fill="#521A67" />
<rect x="200" y="270" width="10" height="10" fill="#833D9E" />
<rect x="210" y="270" width="10" height="10" fill="#521A67" />
<rect x="220" y="270" width="10" height="10" fill="#833D9E" />
<rect x="230" y="270" width="10" height="10" fill="#521A67" />
<rect x="240" y="270" width="10" height="10" fill="#833D9E" />
<rect x="250" y="270" width="10" height="10" fill="#521A67" />
<rect x="260" y="270" width="10" height="10" fill="#833D9E" />
<rect x="270" y="270" width="10" height="10" fill="#521A67" />
<rect x="280" y="270" width="10" height="10" fill="#833D9E" />
<rect x="290" y="270" width="10" height="10" fill="#FBF236" />
<rect x="60" y="300" width="10" height="10" fill="#D95763" />
</svg>