<?xml version="1.0" encoding="UTF-8" ?>
<svg version="1.1" width="170" height="500" xmlns="http://www.w3.org/2000/svg" shape-rendering="crispEdges">
<rect x="0" y="0" width="170" height="10" fill="#1E1C31" />
<rect x="0" y="10" width="10" height="490" fill="#1E1C31" />
<rect x="10" y="10" width="150" height="360" fill="#FAF1DF" />
<rect x="160" y="10" width="10" height="490" fill="#1E1C31" />
<rect x="10" y="370" width="60" height="100" fill="#FAF1DF" />
<rect x="70" y="370" width="10" height="60" fill="#19172A" />
<rect x="80" y="370" width="80" height="20" fill="#FAF1DF" />
<rect x="80" y="390" width="20" height="10" fill="#19172A" />
<rect x="100" y="390" width="60" height="10" fill="#FAF1DF" />
<rect x="80" y="400" width="20" height="20" fill="#FAF1DF" />
<rect x="100" y="400" width="10" height="20" fill="#19172A" />
<rect x="110" y="400" width="50" height="70" fill="#FAF1DF" />
<rect x="80" y="420" width="20" height="10" fill="#19172A" />
<rect x="100" y="420" width="10" height="50" fill="#FAF1DF" />
<rect x="70" y="430" width="30" height="40" fill="#FAF1DF" />
<rect x="10" y="470" width="150" height="10" fill="#DDDAD3" />
<rect x="10" y="480" width="150" height="10" fill="#EBDDC0" />
<rect x="10" y="490" width="150" height="10" fill="#1E1C31" />
</svg>