<?xml version="1.0" encoding="UTF-8" ?>
<svg version="1.1" width="1920" height="561" xmlns="http://www.w3.org/2000/svg" shape-rendering="crispEdges">
<rect x="210" y="40" width="50" height="10" fill="#521A67" />
<rect x="200" y="50" width="10" height="200" fill="#521A67" />
<rect x="210" y="50" width="50" height="20" fill="#76428A" />
<rect x="260" y="50" width="10" height="10" fill="#521A67" />
<rect x="260" y="60" width="10" height="10" fill="#76428A" />
<rect x="270" y="60" width="10" height="10" fill="#521A67" />
<rect x="210" y="70" width="40" height="10" fill="#76428A" />
<rect x="250" y="70" width="10" height="10" fill="#521A67" />
<rect x="260" y="70" width="10" height="10" fill="#431C52" />
<rect x="270" y="70" width="10" height="10" fill="#76428A" />
<rect x="280" y="70" width="10" height="20" fill="#521A67" />
<rect x="210" y="80" width="30" height="190" fill="#76428A" />
<rect x="240" y="80" width="10" height="240" fill="#521A67" />
<rect x="250" y="80" width="10" height="10" fill="#76428A" />
<rect x="260" y="80" width="10" height="10" fill="#521A67" />
<rect x="270" y="80" width="10" height="10" fill="#431C52" />
<rect x="270" y="90" width="10" height="20" fill="#521A67" />
<rect x="280" y="90" width="10" height="10" fill="#76428A" />
<rect x="290" y="90" width="10" height="10" fill="#521A67" />
<rect x="280" y="100" width="10" height="10" fill="#431C52" />
<rect x="290" y="100" width="10" height="10" fill="#76428A" />
<rect x="300" y="100" width="10" height="10" fill="#521A67" />
<rect x="280" y="110" width="10" height="10" fill="#521A67" />
<rect x="290" y="110" width="10" height="10" fill="#431C52" />
<rect x="300" y="110" width="10" height="10" fill="#76428A" />
<rect x="310" y="110" width="20" height="10" fill="#521A67" />
<rect x="290" y="120" width="10" height="10" fill="#521A67" />
<rect x="300" y="120" width="10" height="10" fill="#431C52" />
<rect x="310" y="120" width="20" height="10" fill="#76428A" />
<rect x="330" y="120" width="30" height="10" fill="#521A67" />
<rect x="300" y="130" width="10" height="20" fill="#521A67" />
<rect x="310" y="130" width="10" height="20" fill="#431C52" />
<rect x="320" y="130" width="20" height="10" fill="#76428A" />
<rect x="340" y="130" width="10" height="10" fill="#521A67" />
<rect x="320" y="140" width="20" height="10" fill="#521A67" />
<rect x="1760" y="180" width="40" height="10" fill="#18250F" />
<rect x="1660" y="190" width="110" height="10" fill="#18250F" />
<rect x="1770" y="190" width="30" height="220" fill="#6ABE30" />
<rect x="1800" y="190" width="10" height="270" fill="#18250F" />
<rect x="1610" y="200" width="50" height="10" fill="#18250F" />
<rect x="1660" y="200" width="110" height="30" fill="#6ABE30" />
<rect x="1600" y="210" width="10" height="200" fill="#18250F" />
<rect x="1610" y="210" width="50" height="30" fill="#6ABE30" />
<rect x="1660" y="230" width="20" height="10" fill="#6ABE30" />
<rect x="1680" y="230" width="90" height="10" fill="#18250F" />
<rect x="1610" y="240" width="30" height="190" fill="#6ABE30" />
<rect x="1640" y="240" width="50" height="10" fill="#18250F" />
<rect x="1760" y="240" width="10" height="150" fill="#18250F" />
<rect x="140" y="250" width="60" height="10" fill="#521A67" />
<rect x="200" y="250" width="10" height="10" fill="#76428A" />
<rect x="1640" y="250" width="10" height="230" fill="#18250F" />
<rect x="130" y="260" width="10" height="10" fill="#521A67" />
<rect x="140" y="260" width="70" height="10" fill="#8D57A1" />
<rect x="120" y="270" width="10" height="10" fill="#521A67" />
<rect x="130" y="270" width="10" height="10" fill="#8D57A1" />
<rect x="140" y="270" width="30" height="20" fill="#BF94CE" />
<rect x="170" y="270" width="50" height="50" fill="#8D57A1" />
<rect x="220" y="270" width="10" height="10" fill="#5E2E71" />
<rect x="230" y="270" width="10" height="30" fill="#431C52" />
<rect x="110" y="280" width="10" height="40" fill="#521A67" />
<rect x="120" y="280" width="10" height="30" fill="#8D57A1" />
<rect x="130" y="280" width="10" height="10" fill="#BF94CE" />
<rect x="220" y="280" width="10" height="30" fill="#8D57A1" />
<rect x="130" y="290" width="10" height="30" fill="#8D57A1" />
<rect x="140" y="290" width="20" height="10" fill="#BF94CE" />
<rect x="160" y="290" width="10" height="40" fill="#8D57A1" />
<rect x="140" y="300" width="20" height="20" fill="#8D57A1" />
<rect x="230" y="300" width="10" height="10" fill="#5E2E71" />
<rect x="120" y="310" width="10" height="20" fill="#521A67" />
<rect x="220" y="310" width="10" height="10" fill="#5E2E71" />
<rect x="230" y="310" width="10" height="10" fill="#431C52" />
<rect x="130" y="320" width="10" height="10" fill="#431C52" />
<rect x="140" y="320" width="10" height="10" fill="#5E2E71" />
<rect x="150" y="320" width="10" height="10" fill="#8D57A1" />
<rect x="170" y="320" width="40" height="10" fill="#8D57A1" />
<rect x="210" y="320" width="10" height="10" fill="#5E2E71" />
<rect x="220" y="320" width="10" height="10" fill="#431C52" />
<rect x="230" y="320" width="10" height="10" fill="#521A67" />
<rect x="130" y="330" width="10" height="10" fill="#521A67" />
<rect x="140" y="330" width="10" height="10" fill="#431C52" />
<rect x="150" y="330" width="60" height="10" fill="#5E2E71" />
<rect x="210" y="330" width="10" height="10" fill="#431C52" />
<rect x="220" y="330" width="10" height="10" fill="#521A67" />
<rect x="140" y="340" width="20" height="10" fill="#521A67" />
<rect x="160" y="340" width="40" height="10" fill="#431C52" />
<rect x="200" y="340" width="20" height="10" fill="#521A67" />
<rect x="160" y="350" width="40" height="10" fill="#521A67" />
<rect x="1700" y="390" width="60" height="10" fill="#18250F" />
<rect x="1760" y="390" width="10" height="80" fill="#6ABE30" />
<rect x="1690" y="400" width="10" height="10" fill="#18250F" />
<rect x="1700" y="400" width="60" height="10" fill="#6ABE30" />
<rect x="1540" y="410" width="60" height="10" fill="#18250F" />
<rect x="1600" y="410" width="10" height="80" fill="#6ABE30" />
<rect x="1680" y="410" width="10" height="10" fill="#18250F" />
<rect x="1690" y="410" width="10" height="10" fill="#6ABE30" />
<rect x="1700" y="410" width="30" height="20" fill="#CCEEB5" />
<rect x="1730" y="410" width="30" height="60" fill="#6ABE30" />
<rect x="1770" y="410" width="10" height="50" fill="#6ABE30" />
<rect x="1780" y="410" width="10" height="10" fill="#2F4023" />
<rect x="1790" y="410" width="10" height="30" fill="#202F16" />
<rect x="1530" y="420" width="10" height="10" fill="#18250F" />
<rect x="1540" y="420" width="60" height="10" fill="#6ABE30" />
<rect x="1670" y="420" width="10" height="40" fill="#18250F" />
<rect x="1680" y="420" width="10" height="30" fill="#6ABE30" />
<rect x="1690" y="420" width="10" height="10" fill="#CCEEB5" />
<rect x="1780" y="420" width="10" height="30" fill="#6ABE30" />
<rect x="1520" y="430" width="10" height="10" fill="#18250F" />
<rect x="1530" y="430" width="10" height="10" fill="#6ABE30" />
<rect x="1540" y="430" width="30" height="20" fill="#CCEEB5" />
<rect x="1570" y="430" width="30" height="60" fill="#6ABE30" />
<rect x="1610" y="430" width="10" height="50" fill="#6ABE30" />
<rect x="1620" y="430" width="10" height="10" fill="#2F4023" />
<rect x="1630" y="430" width="10" height="30" fill="#202F16" />
<rect x="1690" y="430" width="10" height="30" fill="#6ABE30" />
<rect x="1700" y="430" width="20" height="10" fill="#CCEEB5" />
<rect x="1720" y="430" width="10" height="40" fill="#6ABE30" />
<rect x="1510" y="440" width="10" height="40" fill="#18250F" />
<rect x="1520" y="440" width="10" height="30" fill="#6ABE30" />
<rect x="1530" y="440" width="10" height="10" fill="#CCEEB5" />
<rect x="1620" y="440" width="10" height="30" fill="#6ABE30" />
<rect x="1700" y="440" width="20" height="20" fill="#6ABE30" />
<rect x="1790" y="440" width="10" height="10" fill="#2F4023" />
<rect x="1530" y="450" width="10" height="30" fill="#6ABE30" />
<rect x="1540" y="450" width="20" height="10" fill="#CCEEB5" />
<rect x="1560" y="450" width="10" height="40" fill="#6ABE30" />
<rect x="1680" y="450" width="10" height="20" fill="#18250F" />
<rect x="1780" y="450" width="10" height="10" fill="#2F4023" />
<rect x="1790" y="450" width="10" height="10" fill="#202F16" />
<rect x="1540" y="460" width="20" height="20" fill="#6ABE30" />
<rect x="1630" y="460" width="10" height="10" fill="#2F4023" />
<rect x="1690" y="460" width="10" height="10" fill="#202F16" />
<rect x="1700" y="460" width="10" height="10" fill="#2F4023" />
<rect x="1710" y="460" width="10" height="10" fill="#6ABE30" />
<rect x="1770" y="460" width="10" height="10" fill="#2F4023" />
<rect x="1780" y="460" width="10" height="10" fill="#202F16" />
<rect x="1790" y="460" width="10" height="10" fill="#18250F" />
<rect x="1520" y="470" width="10" height="20" fill="#18250F" />
<rect x="1620" y="470" width="10" height="10" fill="#2F4023" />
<rect x="1630" y="470" width="10" height="10" fill="#202F16" />
<rect x="1690" y="470" width="10" height="10" fill="#18250F" />
<rect x="1700" y="470" width="10" height="10" fill="#202F16" />
<rect x="1710" y="470" width="60" height="10" fill="#2F4023" />
<rect x="1770" y="470" width="10" height="10" fill="#202F16" />
<rect x="1780" y="470" width="10" height="10" fill="#18250F" />
<rect x="1530" y="480" width="10" height="10" fill="#202F16" />
<rect x="1540" y="480" width="10" height="10" fill="#2F4023" />
<rect x="1550" y="480" width="10" height="10" fill="#6ABE30" />
<rect x="1610" y="480" width="10" height="10" fill="#2F4023" />
<rect x="1620" y="480" width="10" height="10" fill="#202F16" />
<rect x="1630" y="480" width="10" height="10" fill="#18250F" />
<rect x="1700" y="480" width="20" height="10" fill="#18250F" />
<rect x="1720" y="480" width="40" height="10" fill="#202F16" />
<rect x="1760" y="480" width="20" height="10" fill="#18250F" />
<rect x="1530" y="490" width="10" height="10" fill="#18250F" />
<rect x="1540" y="490" width="10" height="10" fill="#202F16" />
<rect x="1550" y="490" width="60" height="10" fill="#2F4023" />
<rect x="1610" y="490" width="10" height="10" fill="#202F16" />
<rect x="1620" y="490" width="10" height="10" fill="#18250F" />
<rect x="1720" y="490" width="40" height="10" fill="#18250F" />
<rect x="1540" y="500" width="20" height="10" fill="#18250F" />
<rect x="1560" y="500" width="40" height="10" fill="#202F16" />
<rect x="1600" y="500" width="20" height="10" fill="#18250F" />
<rect x="1560" y="510" width="40" height="10" fill="#18250F" />
</svg>